<?xml version="1.0" encoding="utf-8"?>
<!DOCTYPE svg PUBLIC "-//W3C//DTD SVG 20010904//EN" "http://www.w3.org/TR/2001/REC-SVG-20010904/DTD/svg10.dtd">
<svg version="1.0" xmlns="http://www.w3.org/2000/svg" width="638px" height="561px" viewBox="0 0 638 561" preserveAspectRatio="xMidYMid meet">
 <g fill="#000000">
  <path d="M0 280.5 l0 -280.5 319 0 319 0 0 280.5 0 280.5 -319 0 -319 0 0 -280.5z"/>
 </g>
 <g fill="#ffffff">
  <path d="M382 460.8 c-8.4 -2.4 -12.9 -9.6 -11.4 -18.6 l0.6 -3.9 -10.2 -0.7 c-10.3 -0.6 -18.1 -2 -21.2 -3.6 -0.9 -0.5 -4.7 -1.5 -8.3 -2.2 -6.3 -1.1 -6.8 -1.1 -8.1 0.7 -1.4 1.9 -3.7 2 -46.2 2.7 -29.1 0.5 -46 0.4 -48.4 -0.3 -7.6 -2 -12.8 -9 -12.8 -17 0 -2.7 -0.4 -3.9 -1.4 -3.9 -0.8 0 -1.7 0.4 -2.1 0.9 -0.3 0.5 -2 1.3 -3.8 1.6 -1.7 0.4 -6.5 2 -10.4 3.6 -6.3 2.5 -8.3 2.8 -14.8 2.5 -7.3 -0.4 -7.5 -0.3 -7.5 1.9 0 3.2 -4.2 4.6 -13.1 4.6 -4.1 -0.1 -12.1 0 -17.8 0.1 -11 0.3 -10.6 0.1 -13 6.1 -1 2.5 -1.5 2.7 -6.7 2.7 -5.9 0 -6.8 0.6 -13.1 8.3 -2 2.4 -3 2.7 -8.2 2.7 -3.3 0 -6.3 -0.4 -6.6 -1 -0.9 -1.5 -2.5 -1.2 -2.5 0.4 0 0.8 -0.7 1.7 -1.6 2 -2.1 0.8 -24.1 0.7 -45.7 -0.3 -17 -0.8 -18.1 -1 -23.5 -3.8 -8.2 -4.3 -7.5 -5.6 0.9 -1.4 l7.1 3.5 27.2 0.6 c14.9 0.3 28.6 0.3 30.4 0.1 3.7 -0.4 4 -1.9 1.6 -7.6 -2 -4.8 -1.1 -8.7 3.2 -14.7 2.7 -3.8 3.1 -4.8 1.7 -4.8 -3 0 -13.7 -4.2 -17 -6.6 -8.2 -6.2 -29.9 -5.4 -35.4 1.2 -3.4 4.2 -9.2 7.4 -13.4 7.4 -4.6 0 -6.5 -1.3 -6.5 -4.7 0 -4.2 8.6 -12.1 15.8 -14.4 2 -0.6 1.6 -0.7 -1.8 -0.3 -8.8 1.2 -12.9 5 -15.4 14.5 -2.4 9.3 -3.3 10.9 -6 10.9 -1.3 0 -2.9 -0.7 -3.6 -1.5 -1.9 -2.3 -1.2 -19.1 1 -22 0.4 -0.5 1.3 -2.7 2 -4.8 0.8 -2.5 4.5 -7.4 10.6 -13.8 13 -13.7 14.5 -17 15.5 -33.4 0.8 -15.1 1.2 -16.7 5.2 -26 3.4 -8.1 8.5 -14.9 16.1 -21.5 7.6 -6.6 9.7 -8 21.8 -14.3 5.9 -3.1 12.3 -6.7 14.1 -8.1 5 -3.8 5.7 -3.4 5.7 3.2 0 11.7 5.5 37.1 8.8 40.4 0.8 0.8 2.3 0.8 5.4 -0.2 2.4 -0.8 4.5 -1.7 4.8 -2.1 0.3 -0.3 2.4 -1.6 4.7 -2.8 5.7 -2.8 6.2 -4.1 2.8 -6.5 -10.2 -7.4 -16.7 -14 -19.9 -20.4 -5.1 -10.2 -7.6 -24.4 -7.6 -43.5 0 -20.7 1 -24.7 7.6 -31.4 7.1 -7.1 12.9 -8.8 27.9 -8 11.5 0.6 15.5 1.5 21.7 4.8 4.1 2.2 5.8 1.9 5.8 -1.1 0 -2.1 4.2 -5.8 7.8 -6.7 1.4 -0.3 3.9 0.1 5.9 1.1 2 0.9 3.7 1.6 3.8 1.4 0.2 -0.2 0.4 -2.1 0.6 -4.3 0.4 -5.2 3.2 -9.3 6.6 -9.7 3.8 -0.4 4.2 -2.8 3.6 -21 -0.6 -15.6 -0.6 -15.7 2.1 -21.2 3.3 -6.8 8.4 -11.1 12.1 -10.2 1.6 0.4 3.9 -0.1 6.5 -1.4 11.7 -6 28.9 -4 38.2 4.4 3 2.7 6.8 9.6 6.8 12.4 0 1 0.4 2.2 0.9 2.8 0.5 0.5 1.6 3.6 2.4 6.9 0.9 3.3 2 7.2 2.6 8.7 1 2.8 8.9 12.2 15.7 18.9 3.6 3.6 3.7 3.9 3.1 8.9 -0.3 2.8 -1.8 7.3 -3.3 9.8 -4.9 8.8 -8 20.2 -5.4 20.2 1.1 0 8 -13.5 8 -15.6 0 -0.7 1.4 -3.9 3 -7.3 2.7 -5.4 3.4 -6.1 5.9 -6.1 3.7 0 7.7 4.6 8.7 9.7 1 5.4 -0.2 28.8 -2 37.3 -0.9 4.1 -2.5 12.8 -3.6 19.2 -1.1 6.5 -2.4 12.6 -2.9 13.5 -0.5 1 -1.9 6.5 -3.1 12.3 -1.2 5.8 -2.6 11.2 -3.1 12.1 -1.3 2.5 -0.3 2.7 4.9 1.3 10.6 -2.9 14.6 -4.5 18.5 -7.4 2.2 -1.6 4.8 -3 5.6 -3 1.2 0 1.2 -0.2 -0.1 -1.7 -5.1 -6.1 -8.5 -18.7 -9.3 -34.7 -0.3 -4.9 -0.9 -9.4 -1.5 -10 -1.2 -1.2 -1.3 -5.7 -0.1 -8.8 0.5 -1.3 1.4 -5.4 2.1 -9.3 1.6 -9.2 6.1 -16.1 14.2 -21.5 5.8 -3.9 6.3 -4 14.2 -4 l8.2 0 1.2 -3.4 c3.3 -9 16.9 -18.9 30 -21.6 3.3 -0.8 5.8 -1.9 6.7 -3.3 0.8 -1.1 1.3 -2.2 1.1 -2.5 -0.5 -0.4 -12.5 1.6 -15.1 2.7 -11.3 4.4 -14.9 7.2 -25.5 19.9 -6 7.1 -10 9.3 -10 5.4 0 -1 -0.4 -2.2 -1 -2.8 -1.1 -1.1 -3.5 -39.9 -3.5 -57.5 0 -9.2 0.4 -13 1.4 -14.2 2 -2.5 3.4 -2 1.7 0.6 -0.8 1.2 -1.7 3.7 -2.1 5.6 -0.7 3.5 0.7 32.1 2.5 48.6 0.5 5 1.2 11.6 1.5 14.8 0.4 3.1 1 5.7 1.5 5.7 0.5 0 3.6 -3.3 6.9 -7.3 3.3 -3.9 7.7 -8.9 9.7 -10.9 5.5 -5.3 15 -9.6 24.7 -11.1 7.9 -1.2 8.2 -1.4 8.8 -4.2 1.1 -4.9 1 -17.3 -0.1 -18 -0.6 -0.4 -2.4 0.5 -4.1 1.9 -3.4 2.9 -6.9 3.4 -6.9 1 0 -0.8 0.9 -3.6 2.1 -6.1 1.7 -3.7 1.8 -4.7 0.7 -5.4 -0.7 -0.5 -1.8 -0.9 -2.3 -0.9 -0.6 0 -4.4 -2.7 -8.5 -6.1 -4.1 -3.4 -8.5 -6.5 -9.7 -6.9 -1.1 -0.5 -3.4 -2.6 -4.9 -4.7 -1.5 -2.1 -3.1 -4.2 -3.5 -4.6 -0.4 -0.5 -1.5 -0.4 -2.5 0.2 -2.6 1.4 -11.5 5.1 -12.3 5.1 -1.7 -0.1 4.5 -4 7.2 -4.5 1.8 -0.4 4 -1.3 5.1 -2 1.8 -1.4 1.8 -1.6 0.2 -6.2 -2.8 -7.8 -2.9 -8.3 -1.9 -8.3 0.6 0 2.9 1.8 5.1 4.1 4.4 4.3 5.2 7.1 2.7 9.9 -1.3 1.4 -1.2 2 0.8 4.7 1.2 1.8 3.4 3.9 4.9 4.7 1.5 0.9 5.9 4.3 9.9 7.6 11.5 9.4 17.1 9 25.1 -1.5 3.2 -4.2 9.3 -17.3 11.3 -24.3 0.8 -2.7 1.6 -30.3 0.9 -31.4 -0.3 -0.4 -1.1 -0.5 -1.9 -0.1 -1.2 0.4 -1.5 2.4 -1.5 8.7 0 5 -0.5 8.7 -1.2 9.4 -2.3 2.3 -5.7 1.3 -10 -2.9 -4.9 -4.7 -9.9 -7.2 -12.5 -6.2 -1 0.3 -4.9 2.6 -8.6 5 -6.3 4 -7.5 4.4 -16.5 5.3 -9.7 1 -12.1 2.1 -13.4 6.2 -0.8 2.3 -3.5 -0.1 -6.4 -5.8 -2.7 -5.3 -2.9 -6.5 -2.9 -16.8 0.1 -9.9 0.4 -11.9 2.9 -17.9 5.3 -12.8 13.7 -19.7 26.7 -21.9 12.3 -2.1 25.8 1.9 35.1 10.5 8.7 8.1 11.4 16.2 12.3 37.1 0.2 5.4 0.6 10.1 0.9 10.4 0.3 0.3 1.7 0 3.1 -0.6 4.3 -2 17.2 -1.1 23.5 1.5 0.8 0.3 2 0.7 2.5 0.8 21.5 5.1 34.1 15.6 39.1 32.6 0.9 3 1.9 5.9 2.4 6.4 3.2 4.2 8.3 42.4 10.1 74.9 1.4 27.5 1 34.5 -2.6 39.2 -2.9 3.8 -2.7 4 4.5 4.7 17.2 1.7 25.4 5.1 35 14.6 9.8 9.7 12.4 15.6 12.9 29.5 0.3 10.6 0.4 10.8 1.7 7.1 3.2 -9.6 7.7 -5.6 12.1 10.9 4 15 4.2 15.7 6.2 26.2 1.6 8.7 6 20.8 8.1 22.4 2.9 2.1 17 26.8 17 29.6 0 0.8 2.5 4.3 5.5 7.9 3 3.5 5.5 7 5.5 7.7 0 0.6 -1 2.3 -2.2 3.6 l-2.3 2.4 4.7 -0.7 c4.7 -0.7 4.7 -0.7 6.2 2.8 1.6 4 1.4 3.9 17.6 5.6 l9.5 0.9 -11.7 -0.2 c-12.7 -0.4 -16.8 -1.7 -16.8 -5.7 0 -2.5 -1.9 -3.3 -5.1 -2.1 -4.8 1.8 -6.4 -0.8 -2.8 -4.6 l2 -2.2 -5.5 -6.3 c-3.1 -3.4 -5.6 -6.8 -5.6 -7.6 0 -2.2 -6.8 -15 -11.8 -22.4 -4.8 -7 -5.1 -7.4 -9 -13.9 -1.2 -2.1 -3.2 -8.4 -4.3 -14.1 -4.7 -23.8 -10.6 -43.7 -13 -43.7 -0.5 0 -1.6 1.5 -2.6 3.3 -2.7 5 -2.4 25.6 0.6 36.2 3.8 13.9 5.4 19 6.1 20 0.4 0.6 1.3 2.8 2 5 1.5 4.9 9.2 20.6 12 24.5 1.1 1.5 2 3.2 2 3.6 0 0.5 1.1 2 2.4 3.4 7.3 7.7 11.7 12 16.8 16.5 6.9 6 7.8 9.2 3.4 11.3 -6.8 3.4 -11.6 3 -34.6 -3 -6.3 -1.6 -14.5 -3.4 -18.2 -4 -8 -1.4 -9.9 -0.5 -15.5 7.3 -1.9 2.7 -5.4 6 -7.7 7.2 -3.9 2.1 -5.2 2.2 -24.1 2 -25.9 -0.2 -46.2 -2.6 -51.6 -6.1 -1.4 -0.9 -5.2 -3.4 -8.4 -5.6 -4.7 -3.1 -6.1 -3.7 -7.4 -2.7 -0.9 0.6 -2.3 1.4 -3.1 1.8 -0.8 0.3 -4.9 3.2 -9 6.3 -4.1 3.1 -8.5 5.9 -9.7 6.2 -3.4 0.9 -5.8 -2.5 -5.6 -7.8 0.2 -4.5 -1.1 -5.6 -3.5 -3.2 -2.9 2.9 -0.7 9.1 5.2 14.7 4 3.9 4.7 7.5 1.7 9.1 -2.4 1.2 -8.4 1.2 -13.1 -0.2z m13.7 -2.5 c0.3 -0.8 0.1 -1.8 -0.4 -2.2 -0.6 -0.3 -2.9 -2.8 -5.2 -5.6 -3.3 -4 -4.1 -5.7 -4.1 -9 0 -4.6 1.4 -6.5 4.7 -6.5 2.1 0 2.3 0.5 2.3 4.8 0 4.8 1.2 7.2 3.8 7.2 0.7 0 4.9 -2.7 9.1 -6 4.3 -3.3 8.3 -6 8.8 -6 1.9 0 2.2 -2.8 0.5 -3.3 -0.9 -0.3 -4.8 -1.7 -8.5 -3 l-6.8 -2.5 -6.2 1.9 c-3.4 1.1 -8 3.2 -10.3 4.8 -2.2 1.5 -5.3 3.1 -6.9 3.5 -3.9 1 -4.5 2.1 -4.5 8.4 0 6.8 2.2 10.9 6.8 12.9 7.2 3.2 15.8 3.4 16.9 0.6z m-285.6 -12 c1.6 -1 3.1 -2.5 3.4 -3.3 1.3 -4 4.5 -6 9.7 -6 5.5 0 8.8 -1.9 8.8 -5.1 0 -0.9 1.1 -2.6 2.5 -3.6 l2.5 -1.8 -1.8 -3.7 c-1.1 -2 -2.4 -7 -3.1 -11.1 l-1.2 -7.5 -4.1 -0.6 c-5.1 -0.8 -6 0 -7.8 7.3 -1.6 6.9 -7.8 20.1 -9.8 20.8 -3.2 1.3 -3.6 -5.3 -0.7 -12.2 3.9 -9.5 6.2 -13.8 7.9 -15.1 1.6 -1.1 1.7 -1.4 0.4 -1.4 -1.6 0 -7.3 5.8 -10.5 10.7 -1 1.5 -2.5 3.4 -3.5 4.1 -0.9 0.7 -1.5 1.9 -1.2 2.6 0.3 0.7 -1.1 4.2 -3 7.8 -4.6 8.3 -5 14.6 -1 17.7 3.3 2.6 8.6 2.7 12.5 0.4z m399.3 -1.3 c3.4 -1.6 5.6 -3.5 8.5 -7.9 2.2 -3.2 4.7 -6.1 5.6 -6.5 3 -1.1 11.9 -0.6 17.5 1 21.8 6.2 36.5 8.3 44.3 6.1 3.9 -1.1 3.4 -2.9 -2.5 -8.4 -17.8 -16.2 -26.9 -29 -32.9 -46.2 -1 -3 -2.3 -5.9 -2.8 -6.5 -2.3 -2.8 -8.9 -29.9 -9.2 -37.6 l-0.1 -4.5 -1.5 6.5 c-0.7 3.6 -2.5 13.1 -3.8 21.2 -1.3 8.1 -2.9 15.5 -3.4 16.5 -0.6 1 -2 6.7 -3.2 12.8 -1.2 6 -2.5 12 -3.1 13.4 -0.5 1.4 -2 6.8 -3.4 12.1 -1.4 5.2 -2.9 10 -3.4 10.5 -0.4 0.6 -1.4 3 -2.1 5.4 -0.7 2.4 -2.7 5.8 -4.4 7.6 -3.8 4.1 -10.3 5.2 -21.8 3.5 -5.9 -0.8 -9 -0.8 -11 -0.1 -1.6 0.6 -3.9 1.1 -5.3 1.1 -1.3 0 -2.4 0.5 -2.4 1 0 0.6 6.6 1 17.9 1 15.8 0 18.4 -0.2 22.5 -2z m-51.9 -0.6 c-8.2 -1.7 -16.2 -3.7 -17 -4.4 -0.5 -0.4 -3.7 -1.7 -7 -2.9 l-6 -2.2 3 2.6 c4.9 4.1 8 5.4 15.2 6.4 6.9 0.9 15.5 1.2 11.8 0.5z m16 -1.3 c2.8 -0.6 2.5 -0.9 -4 -2.9 -3.8 -1.2 -9.7 -2.7 -13 -3.3 -3.3 -0.5 -6.7 -1.2 -7.6 -1.5 -1.6 -0.5 -4.5 4.1 -3.1 5 0.5 0.3 3.7 0.9 7.3 1.5 12.5 2.1 15.7 2.2 20.4 1.2z m32.5 -1.6 c2.9 -1.5 5.9 -6.2 7.5 -11.5 0.4 -1.4 1.3 -3.8 2.1 -5.5 1.6 -3.8 5.7 -19.2 9.4 -35.5 1.6 -6.9 2.9 -12.5 3 -12.5 0.7 0 7 -37.9 8.2 -48.5 1.2 -11.8 0.4 -24 -2 -30.4 -3.8 -9.9 -17.1 -23 -26 -25.6 -2 -0.6 -9.3 -1.7 -16 -2.6 l-12.4 -1.4 -4.6 3.3 c-3.6 2.5 -4.8 4 -4.9 6.3 -0.2 1.6 -0.8 6.7 -1.4 11.3 -1 7.3 -1.6 8.8 -4.5 12.1 -4 4.4 -4.2 5.8 -1 6.6 4.4 1.1 5 4.9 2.6 16.8 -1.2 5.8 -1.9 10.9 -1.6 11.4 0.2 0.4 1.6 6.1 3.1 12.7 1.5 6.6 3.3 13.1 3.9 14.5 0.7 1.4 2.1 5.4 3 9 1 3.6 2.6 8.3 3.5 10.5 1 2.2 2.6 5.9 3.6 8.3 1 2.3 2.2 4.2 2.7 4.2 0.4 0 0.8 -9.3 0.8 -20.7 0 -28.3 1.9 -48.9 5.5 -61.3 0.7 -2.5 2 -7.2 3 -10.5 2.4 -8.2 5.9 -13.5 8.9 -13.5 1.9 0 2.5 0.7 3 3.3 0.8 4.3 -0.2 7.4 -5.7 18.1 -5.9 11.2 -6.9 16.6 -6.1 33.6 0.7 13.9 -0.4 28.4 -3.2 44 -1.7 9.2 -4.3 13.5 -7.5 12.5 -1.6 -0.5 -1.8 -0.1 -1.2 4.3 0.4 3.8 0.2 5.2 -1.2 6.6 -1.6 1.6 -1.6 2.1 -0.4 5.9 0.8 2.5 1.4 8.4 1.4 14.4 l0 10.2 3 0.4 c8.1 1 18.7 0.6 21.5 -0.8z m-412.2 -3.7 c0.1 -2.3 1.1 -5.9 2.1 -8 2.2 -4.5 -0.1 -3.2 -2.5 1.3 -1.9 3.7 -1.8 10.9 0.1 10.9 0.1 0 0.2 -1.9 0.3 -4.2z m385.3 1.5 c1.7 -2 1.7 -15.2 0 -20.4 -2.5 -7.7 -9.9 -11.5 -24.6 -12.5 -10.7 -0.8 -10.7 -0.7 -7.4 5.8 2.2 4.3 2.8 12.4 1.5 18.5 l-0.7 3.1 5.8 1.2 c9.4 1.8 18.7 4.1 20.3 5.1 2.2 1.3 3.6 1.1 5.1 -0.8z m-36.4 -3.2 c0.1 -1.3 -0.9 -2.1 -3.6 -3 -4.3 -1.3 -11.1 -1.5 -11.1 -0.3 0 0.9 9.9 5 12.5 5.1 1.3 0.1 2.1 -0.6 2.2 -1.8z m-70.1 -0.8 c-0.4 -0.4 -3.3 -0.8 -6.4 -0.9 -8 -0.3 -10.3 -1.5 -15.3 -7.5 -4.9 -6 -14 -14.9 -15.1 -14.9 -2.2 0 -0.1 3.2 5.2 7.9 8.3 7.4 8 10.9 -1 11.1 l-2.5 0.1 2.5 1.1 c5.7 2.4 13.1 3.6 22.9 3.7 5.7 0.1 10.1 -0.2 9.7 -0.6z m-135.2 -2.2 c0.3 -0.4 -1.8 -4.5 -4.7 -8.9 -2.8 -4.5 -6.7 -10.6 -8.5 -13.7 -2.7 -4.4 -3.9 -5.5 -5.5 -5.3 -3 0.4 -3.7 4.8 -0.8 4.8 2.7 0 4.9 3.5 7.7 12.2 1.3 3.9 3.4 8.2 4.6 9.5 2.1 2.3 6.2 3.1 7.2 1.4z m71.1 -0.1 c0.4 -0.6 -3.5 -1 -11 -1 -7.5 0 -11.4 0.4 -11 1 0.3 0.6 5.2 1 11 1 5.8 0 10.7 -0.4 11 -1z m-81.1 -2.2 c-0.5 -0.7 -2.3 -5.1 -3.9 -9.8 -3.4 -9.5 -6.1 -11.5 -5.9 -4.5 0.1 5.4 2 10.8 4.7 13.2 3.4 3.2 6.9 3.9 5.1 1.1z m150.4 -0.7 c1.2 -1.1 2.2 -2.4 2.2 -2.9 0 -0.6 -4.2 -2 -9.2 -3.2 -10 -2.3 -22.4 -6.5 -24.8 -8.5 -7.7 -6.2 -3.5 0.6 7.6 12.2 l4.1 4.3 8.9 0 c7.2 -0.1 9.3 -0.4 11.2 -1.9z m66.2 -2.3 c0.6 -2.4 1.5 -5.7 2 -7.5 1.5 -5.8 -1.3 -7.7 -15.1 -10.3 -3 -0.5 -6.3 -1.4 -7.4 -1.9 -1.1 -0.5 -6.9 -1.9 -13 -3.1 -6 -1.2 -11.4 -2.5 -12 -2.9 -0.5 -0.4 -4.5 -1.6 -8.8 -2.6 -7 -1.6 -8.2 -2.2 -13.2 -7.1 -11.7 -11.6 -23.5 -17.7 -36.5 -19 -8.7 -0.8 -9.3 0.7 -1.7 4.3 2.6 1.3 4.7 2.7 4.7 3.2 0 0.5 2.1 2.2 4.8 3.7 5.9 3.6 3.7 4.4 -5.3 1.9 -3.5 -0.9 -7.5 -1.5 -9.1 -1.3 -2.9 0.3 -2.9 0.4 -2.9 6.8 0 5.6 0.4 7.1 3 11 4.9 7.3 14.5 13 29.5 17.4 19.2 5.6 19.8 5.8 22.2 4.2 6 -4 22 -2.4 31.4 3 2.8 1.7 5.7 2.4 9.5 2.5 3 0 7.4 0.4 9.9 0.8 2.5 0.5 5 0.9 5.7 1 0.7 0 1.7 -1.8 2.3 -4.1z m3.4 2 c0.3 -1.3 0.6 -3.4 0.5 -4.8 0 -2.3 -0.1 -2.2 -1.4 0.9 -0.8 1.8 -1.5 4 -1.5 4.7 0 2.2 1.7 1.6 2.4 -0.8z m-144.7 0.5 l17.1 -0.6 -3.4 -2.4 c-1.9 -1.2 -3.9 -2.3 -4.3 -2.3 -0.9 0 -6.8 -6.4 -11 -12 -3 -4 -11 -16 -19.5 -29.5 -2.4 -3.8 -6.2 -9.6 -8.3 -12.8 -2.1 -3.2 -5.6 -9.1 -7.8 -13 l-4.1 -7.2 -11.4 -0.6 c-6.3 -0.4 -17.1 -0.7 -24 -0.8 l-12.6 -0.1 0.4 21.6 0.4 21.6 3.5 5.1 c3.8 5.7 5.1 6.5 10.2 6.6 2 0.1 4.8 1.1 6.8 2.7 1.8 1.4 5.3 3.4 7.8 4.5 4.6 2 7.5 5.1 7.5 8 0 0.9 -1.5 3.1 -3.2 5 -7.2 7.5 -8.7 6.9 16.3 6.9 12.3 0 30.1 -0.3 39.6 -0.7z m80.3 -0.3 c0 -1.3 -1.1 -1.3 -3 0 -1.2 0.8 -1.1 1 0.8 1 1.2 0 2.2 -0.4 2.2 -1z m30.5 -2.1 c-10.4 -5.4 -28.5 -5.2 -28.5 0.2 0 1.9 0.2 1.8 4.3 -0.3 6 -3.2 14.5 -3 21.7 0.5 7.7 3.7 9.9 3.3 2.5 -0.4z m-299.5 -7.4 c2.1 -5 4.1 -10.6 4.5 -12.5 l0.7 -3.5 -2.6 2.4 c-1.4 1.3 -3.3 4.5 -4.3 7 -0.9 2.5 -2.3 5.7 -3 7.1 -1.6 3.1 -1.7 9.3 -0.2 8.8 0.6 -0.2 2.8 -4.4 4.9 -9.3z m130 4.2 c3.9 -4.3 4.2 -5.1 3.4 -7.5 -0.6 -1.8 -2.5 -3.4 -5.5 -4.8 -2.5 -1.2 -6.2 -3.4 -8.3 -4.8 -2.3 -1.5 -5.3 -2.6 -7.2 -2.6 -3.3 0 -4.5 1.2 -2.4 2.5 0.6 0.4 2 2.5 3.1 4.7 3.4 6.6 10.9 18 11.7 17.6 0.4 -0.2 2.8 -2.5 5.2 -5.1z m97.4 4.7 c2.5 -0.4 4.6 -1.1 4.6 -1.5 0 -0.5 -2.9 -3.7 -6.5 -7.2 -6.2 -6 -7.7 -8.8 -5.5 -10.2 0.5 -0.3 2.2 0.1 3.8 0.9 2.3 1.2 1.8 0.4 -2.4 -4 -4.1 -4.1 -5.5 -6.5 -6 -9.4 -0.4 -2.2 -0.9 -4 -1.3 -4 -0.3 0 -2.1 2.1 -4 4.5 -2.3 3.1 -4.1 4.5 -5.7 4.5 -1.3 0 -2.4 -0.4 -2.4 -1 0 -0.5 -1.3 -1 -3 -1 -3.5 0 -9 -5 -10.9 -10.1 -2.6 -6.8 -4.4 -9.5 -11.3 -16.9 -3.8 -4.1 -6.4 -6.4 -5.8 -5.1 1.2 2.3 3.1 5.3 17.8 27.3 4 5.9 7.2 11 7.2 11.3 0 0.3 2.9 4.7 6.5 9.8 3.6 5.1 6.5 9.7 6.5 10.4 0 2 9.6 2.9 18.4 1.7z m-321 -8.8 c3.1 -10 7 -14.9 13.1 -16.4 14.9 -3.6 15.2 -3.6 26.1 -1.8 5.7 1 11.3 1.4 12.5 1.1 1.6 -0.5 1.9 -0.4 1.4 0.5 -0.6 0.9 -2.6 1.1 -7.4 0.6 -3.6 -0.3 -10 -0.8 -14.1 -1.1 -6.8 -0.4 -6.6 -0.3 2.7 1 5.6 0.7 12.3 2.3 14.9 3.4 2.6 1.2 4.9 1.9 5.2 1.6 0.3 -0.2 0 -4.4 -0.7 -9.3 -0.9 -7.3 -0.8 -10.4 0.3 -16.5 1.6 -8.2 6 -17.4 10.8 -22.2 l2.9 -3 1.9 2.2 c2.5 3.1 1.1 7.5 -5 15 -8 9.9 -8.9 12.3 -8.8 24.9 l0.1 11 3.6 2.6 c3.8 2.6 8 4.2 14.5 5.3 3.6 0.6 4 0.4 8 -4 2.2 -2.6 6.1 -6.8 8.6 -9.5 l4.5 -4.8 7.2 0.3 7.1 0.4 0.6 -3.7 c0.4 -2 2 -8 3.6 -13.2 3.7 -11.9 5 -22 5 -36.8 -0.1 -11.1 -1.8 -24.3 -3.4 -26 -0.4 -0.4 -4.3 1.2 -8.6 3.6 -10 5.4 -16 5.5 -16 0.3 0 -0.9 -0.7 -2.9 -1.6 -4.6 -2 -3.9 -5.4 -23.2 -5.4 -31.2 0 -3.5 -0.3 -6.3 -0.7 -6.3 -0.3 0 -2 1 -3.7 2.3 -1.7 1.3 -7.8 4.7 -13.6 7.6 -11.9 6 -14.3 7.6 -22 14.5 -8.3 7.6 -12.6 13.5 -16 22.2 -3.3 8.6 -4.9 17.9 -5 29.2 0 10.5 -2.8 15.8 -15 28.6 -5.4 5.6 -10 11.1 -10.3 12.2 -5.8 19.2 -6.2 28.4 -1.1 28.4 0.6 0 2.3 -3.8 3.8 -8.4z m134.3 6.2 c1.8 -0.5 5.2 -0.6 7.7 -0.3 2.4 0.4 6.3 0.4 8.5 0 3.7 -0.6 4.1 -0.9 4.1 -3.7 0 -1.6 -1.5 -6.6 -3.4 -11.1 -1.9 -4.5 -3.7 -9 -4 -10 -0.5 -1.5 -1.3 -1.6 -6.2 -1.1 -5.4 0.7 -5.7 0.6 -5 -1.2 1.8 -4.4 1.8 -5.4 0 -5.4 -0.9 0 -2.5 0.7 -3.5 1.6 -1.4 1.3 -1.5 2 -0.7 3.4 1.8 2.9 0.3 5 -3.7 5 -3.9 0 -4.4 -1.3 -1.8 -4.2 1.5 -1.7 1.5 -2 0.1 -3.4 -1.3 -1.4 -1.8 -1.3 -4.9 0.4 -1.9 1.1 -5.1 2.3 -7.1 2.6 -2.1 0.4 -3.8 1 -3.8 1.4 0 1.4 2.4 3.2 4.2 3.2 1 0 3.2 1.3 5 2.9 l3.2 2.8 -1.1 6.4 c-0.6 3.5 -1.4 7.4 -1.8 8.6 -1.3 4 5 5 14.2 2.1z m152.8 -20.9 c-7.4 -11.2 -14.3 -21.5 -15.2 -22.9 -6 -8.5 -8.3 -12 -8.3 -12.6 0 -1.1 -8.3 -12.5 -11.6 -16.1 -3.5 -3.6 -7.4 -4.4 -7.4 -1.5 0 1 1.4 4.1 3.2 6.8 1.7 2.7 4.6 7.4 6.5 10.4 17 27.1 27.8 43.2 32.9 48.7 4.3 4.8 11.4 9.4 12.7 8.3 0.4 -0.3 -5.4 -9.8 -12.8 -21.1z m-166.6 9.6 c1.2 -4.9 1.2 -5 -1.9 -7.7 -4.9 -4.5 -6.4 -3.8 -5.6 2.6 0.3 3 1.6 7.6 2.7 10.3 2.4 5.4 2.2 5.5 4.8 -5.2z m-104.9 5.8 c1.4 -0.9 4.4 -3.3 6.6 -5.4 5 -4.5 9.5 -5.9 18.9 -5.9 l7 -0.1 -3 -1.7 c-2.2 -1.2 -6.2 -1.7 -14.6 -2 l-11.5 -0.4 -4.8 3.2 c-6.1 4.2 -10.4 10.3 -8.6 12.5 1.7 2 7 1.9 10 -0.2z m165.2 -3.8 c11.9 -3.7 12.6 -4.2 13 -8.4 0.2 -2.6 0.9 -3.9 2.6 -4.6 2.8 -1.2 2.8 -1.6 -0.2 -5.9 l-2.4 -3.5 -0.7 5.5 c-0.6 4.7 -1.3 6.2 -4.6 9.5 -2.1 2.1 -4.8 3.9 -5.8 3.9 -1.1 0 -2.1 0.4 -2.3 0.9 -0.1 0.4 -2.8 1.7 -5.8 2.8 -3 1.1 -5.6 2.6 -5.8 3.3 -0.3 0.9 0.1 0.9 1.6 0.1 1.1 -0.6 5.8 -2.2 10.4 -3.6z m-18.6 1.3 c-0.3 -1.3 -0.7 -4.3 -1.1 -6.8 -0.3 -2.5 -1.3 -6.6 -2.2 -9.2 -1.5 -4.2 -2.1 -4.8 -4.5 -4.8 l-2.9 0 2.3 3 c1.7 2.4 2.3 4.8 2.6 10.3 0.4 9.2 0.6 9.7 3.7 9.7 2.1 0 2.5 -0.4 2.1 -2.2z m16.9 -4.7 c10.1 -4.8 12.2 -7.4 12.6 -15.6 l0.4 -6 -11.3 -16.9 c-6.2 -9.3 -11 -17.1 -10.6 -17.5 0.3 -0.3 1.1 0.2 1.8 1.3 0.6 1 3.5 5.3 6.3 9.5 2.9 4.2 6.7 10 8.4 12.9 1.7 2.8 3.8 5.2 4.7 5.2 1.3 0 1.4 -2 0.8 -17 -0.3 -9.3 -1.1 -18.1 -1.6 -19.5 -0.9 -2.5 -1.1 -2.5 -12.5 -2.5 -12.6 0 -13.3 0.4 -9.9 5.6 0.9 1.3 1.4 2.7 1.1 3 -0.9 0.9 -4.8 -5.8 -4.4 -7.6 0.2 -1.2 2.5 -1.6 12 -1.8 l11.8 -0.3 -3.4 -6.3 c-1.9 -3.5 -4.3 -9.6 -5.2 -13.7 -0.9 -4.1 -2.1 -8.3 -2.5 -9.4 -0.5 -1.1 -1.6 -5.6 -2.5 -10 -2.6 -12.3 -5.8 -16.3 -14.5 -17.8 -4.7 -0.9 -5.6 -0.1 -6.4 5.4 -1.7 11.7 -9 22.9 -14.8 22.9 -3.7 0 -7.2 8.4 -7 16.6 0.1 3.5 0.6 7.2 1.1 8.2 0.6 0.9 1.9 8.4 3.1 16.6 1.2 8.3 2.8 17.5 3.6 20.5 1.8 7 1.8 12 0 14 -0.7 0.9 -1.7 2.7 -2.1 4 -0.7 2.2 -0.5 2.3 2.1 1.7 1.6 -0.4 6 -1.4 9.7 -2.1 4.8 -1.1 7.9 -2.4 10.7 -4.7 2.2 -1.8 4 -3.6 4 -3.9 0 -0.3 -1.1 -1.6 -2.5 -2.9 -1.9 -1.8 -2.5 -3.4 -2.5 -6.6 0 -7.8 5 -20.4 8.2 -20.4 1.5 0 0.8 6.9 -1.2 12.2 l-2 5.3 4 3.5 c2.2 1.9 4 4.3 4 5.3 0 3.5 -3.5 7.7 -8 9.9 -2.5 1.2 -4.7 2.2 -4.8 2.4 -0.2 0.1 0.3 3.3 1.2 7.1 0.8 3.7 1.8 8.5 2.1 10.7 0.6 3.8 0.7 3.8 4.2 3.3 2 -0.4 7.3 -2.4 11.8 -4.6z m-24.1 -4.5 c-0.7 -4.6 -3.5 -9.6 -5.6 -9.6 -1.1 0 -0.9 1.1 1.4 7 1.8 4.6 3.9 8.3 4.4 7.7 0.2 -0.2 0.1 -2.5 -0.2 -5.1z m268 -1.2 l-0.7 -3.7 12.2 0.5 12.3 0.5 -4.9 -5.1 c-11.1 -11.5 -17.7 -22 -20.2 -32.1 -0.7 -2.7 -1.7 -6 -2.3 -7.2 -0.6 -1.1 -1.6 -4.7 -2.4 -8 -1.3 -5.7 -1.3 -5.7 -0.8 5.7 0.5 12.9 2.2 26 3.4 27.5 0.5 0.6 1.1 2.8 1.5 4.9 0.7 3.7 0.7 3.9 -1.6 3.3 -1.3 -0.3 -4.9 -1.4 -7.9 -2.6 -4.9 -1.9 -11 -2.8 -11 -1.7 0 0.3 0.4 1.6 0.9 2.9 0.8 2.1 1.8 2.5 7.5 3.2 6.9 0.7 9.6 2.6 9.6 6.7 0 1.6 -1 1.8 -6.9 1.8 -10.8 0 -15.1 -2.3 -15.1 -8 0 -2.1 -0.1 -2.1 -3.2 0.5 -2.9 2.4 -3.8 2.7 -8.5 2.2 -4.1 -0.4 -7 -1.6 -12.3 -5.1 -3.8 -2.5 -7.7 -5.9 -8.6 -7.6 -1 -1.6 -2.6 -3 -3.6 -3 -1 0 -2.6 -0.4 -3.6 -0.9 -13.1 -6.9 -31.7 -15.1 -35.3 -15.6 -3.6 -0.5 -5.7 -0.2 -9.7 1.5 -10.3 4.4 -11.5 0.9 -11.6 -33.5 -0.1 -22.5 -0.3 -25.4 -1.9 -27.9 -1.7 -2.6 -2 -2.7 -4 -1.2 -6.1 4.4 -10.9 6.7 -18.2 8.6 -4.7 1.2 -8.7 2.9 -9.7 4.1 -3.8 4.5 -3.7 24 0.1 30.5 2.8 4.8 11.1 25.1 11.1 27.3 0 2.2 1.6 4.7 8.7 13.9 6.5 8.3 8.7 9.8 12.8 8.8 2.4 -0.6 2.4 -0.8 1.8 -9.2 -0.6 -7.9 -0.5 -8.6 1.2 -8.3 1 0.2 2.5 1.8 3.5 3.6 l1.7 3.2 1.2 -2.7 c1.1 -2.4 1 -2.8 -0.9 -4.2 -5.3 -3.7 -17.3 -14.2 -26.2 -23 -9.3 -9.2 -12.1 -13.1 -11.1 -15.7 1.3 -3.4 5.3 -0.5 22.2 16.5 16.8 16.8 22.4 21.2 26.8 21.2 1 0 -0.7 -1.3 -3.7 -2.8 -6.9 -3.4 -7.2 -5.6 -1 -6 13.9 -1.1 28.9 5.7 42.6 19.1 4.8 4.8 5.8 5.3 16 7.9 6 1.6 15.9 4 21.9 5.4 8.6 1.9 26.5 6.5 28.3 7.3 0.2 0 0 -1.5 -0.4 -3.5z m37.1 0.7 c1.4 -4.4 -1.8 -11.4 -8.4 -18.5 -8.7 -9.4 -14.3 -19.7 -17.6 -32.1 -1 -3.8 -2.2 -7.4 -2.5 -8 -0.4 -0.5 -1.5 -5.3 -2.5 -10.5 -0.9 -5.2 -2.5 -12.4 -3.6 -15.9 -1 -3.5 -1.9 -7.3 -1.9 -8.3 0 -2.7 -2.8 -1.9 -5.4 1.5 -1.9 2.6 -2.1 4 -1.9 14.6 0.2 11.8 1 15.8 5.7 32.6 4.4 15.6 11.4 26.5 25.6 39.8 7.4 7 11.3 8.5 12.5 4.8z m-43.5 -7.1 c0 -2.6 -2.9 -4 -8.5 -4 -3.7 0 -5.1 -0.5 -7 -2.6 l-2.5 -2.7 0 4.1 c0 2.2 0.6 4.4 1.3 4.9 0.6 0.4 4.4 1.1 8.2 1.4 3.9 0.3 7.3 0.6 7.8 0.7 0.4 0.1 0.7 -0.7 0.7 -1.8z m-285.4 -0.1 c0.3 -0.6 0.1 -1.6 -0.4 -2.1 -1.3 -1.3 -4.5 0.8 -3.6 2.3 0.7 1.2 3.1 1.1 4 -0.2z m260.6 -4.9 c5.1 -4 6.1 -8.1 5.4 -21.8 -0.4 -6.8 -1.2 -14.9 -1.7 -17.9 -1.3 -6.9 -6.8 -23.9 -10.3 -31.7 -1.4 -3.2 -2.6 -6.5 -2.6 -7.2 0 -0.8 -0.3 -1.4 -0.7 -1.4 -0.5 0 -1.6 -1.4 -2.5 -3 -1.8 -3.2 -8.5 -6.6 -18.4 -9.5 -3.3 -0.9 -8.7 -3 -12.1 -4.7 -3.4 -1.8 -6.5 -2.9 -6.9 -2.5 -0.4 0.3 0.2 2.8 1.3 5.4 2.7 6.3 3.5 11.5 2.7 15.9 -0.6 3.1 -1.3 3.9 -5 5.5 -5.3 2.4 -6.1 3.5 -3.1 4.3 3.4 0.8 7.7 4.5 7.7 6.4 0 0.9 -0.7 3.1 -1.6 4.7 -0.9 1.7 -2.7 6.8 -4.1 11.3 -1.3 4.6 -2.8 9.1 -3.2 10 -0.5 1 -1.5 3.1 -2.2 4.7 -0.7 1.7 -1.5 3.3 -1.7 3.6 -0.4 0.8 21.3 11.5 25.3 12.5 2.8 0.7 2.8 0.7 2.2 -3.2 -0.4 -2.1 -1.2 -9.7 -1.8 -16.7 -1.1 -12.3 -1 -13 0.8 -15.5 2.5 -3.4 4.9 -3.9 7.4 -1.6 2.4 2.2 2.4 4.2 0 12.9 -2.3 8.2 -3.1 25.9 -1.3 29.1 1.4 2.6 11.2 9.3 16.2 11 5 1.8 7.4 1.7 10.2 -0.6z m-272.7 -0.6 c2.7 -1.1 3.5 -1.8 2.7 -2.6 -1.3 -1.3 -8.3 1 -9 3 -0.5 1.6 1.8 1.5 6.3 -0.4z m169.6 -0.2 c-1.1 -2.1 -5.1 -5.8 -5.1 -4.8 0 0.5 0.9 2.1 2.1 3.7 2.2 3.2 4.6 4.1 3 1.1z m173.9 1.2 c0 -0.3 -0.9 -2.2 -1.9 -4.2 -3.1 -5.9 -5.6 -12.2 -7.5 -19.2 -1 -3.6 -2.4 -7.8 -3.2 -9.5 -0.7 -1.6 -2 -6.1 -2.9 -10 -0.9 -3.8 -2.1 -7.8 -2.6 -8.8 -1.6 -3 -2.2 -15.9 -0.9 -20.7 0.7 -2.5 1.5 -6.8 1.7 -9.5 0.5 -5 0.4 -5.1 -3.1 -6.8 -2 -0.9 -3.6 -2.3 -3.6 -3 0 -0.7 1.6 -2.8 3.5 -4.7 3.5 -3.4 4.4 -6.2 6 -18.2 1.1 -8.4 -1.1 -6.2 -12 12.1 -5.4 9 -6.4 19.5 -3.5 36.6 3.5 20.6 6.2 28 21 56.5 2.5 5 6.7 10 8.2 10 0.4 0 0.8 -0.2 0.8 -0.6z m-157 -5.9 c0 -1.8 -0.9 -4.3 -2 -5.6 -1.9 -2.3 -1.9 -2.4 -2 -0.3 0 1.2 0.3 4.2 0.6 6.8 0.6 3.7 0.9 4.4 2 3.5 0.8 -0.6 1.4 -2.6 1.4 -4.4z m163 -5 c0.6 -4.4 1.6 -10.7 2.2 -14 0.5 -3.3 1.1 -16.1 1.1 -28.5 l0.2 -22.5 5.8 -11.6 c4.2 -8.5 5.7 -12.7 5.7 -15.8 0 -9.7 -6.4 -1.8 -9.9 12.4 -1.3 5 -2.7 9.9 -3.2 11 -2.5 6 -5.2 40.9 -4.7 63 0.2 8.4 0.6 15.1 0.9 14.7 0.4 -0.4 1.2 -4.3 1.9 -8.7z m-343 6 c5.2 -0.1 10.8 -0.7 12.4 -1.3 2.4 -1.1 2.7 -1.6 2.2 -4 -2 -8.4 -2.9 -12.8 -4.7 -23.7 -1 -6.6 -2.6 -15.6 -3.4 -20 -1.9 -11 -1.8 -14.9 0.5 -19.7 1.3 -2.7 1.7 -4.5 1.1 -5.1 -1.2 -1.2 -7 -4.7 -13.5 -8.2 -6.6 -3.5 -20 -14.9 -25.6 -21.8 -2.5 -3.1 -4.8 -5.6 -5.3 -5.7 -1.6 -0.1 4.3 11 8.5 16 0.7 0.8 4.5 3.9 8.3 6.7 3.9 2.8 7.9 6.1 8.9 7.2 1.3 1.5 2.6 1.9 4.3 1.5 1.9 -0.5 3.2 0.1 5.9 2.7 5.9 5.7 4.3 6.9 -5.7 4.4 l-2.7 -0.7 1.5 6.9 c3.4 14.9 1.4 46.4 -3.7 59.4 -2.5 6.2 -2.5 7.3 -0.2 6.3 0.9 -0.4 6 -0.8 11.2 -0.9z m40.3 0.4 c2.6 -1.2 4.7 -4.7 4.7 -7.8 0 -1 -1.6 -3.1 -3.5 -4.5 -4.1 -3.1 -4.4 -5.4 -1.5 -11.7 1.1 -2.4 2 -5.3 2 -6.4 0 -4 -3.1 1.1 -5.1 8.1 -2.7 9.9 -2.5 11.7 1.7 15.2 l3.5 2.9 -3.3 2.7 c-3.4 2.7 -2.7 3.4 1.5 1.5z m253.2 -2.1 c-2 -6.7 -3.5 -17.3 -4.5 -32.9 -0.9 -13.9 -1.5 -17.9 -2.9 -19.9 -1 -1.4 -2.8 -5.6 -4 -9.3 -2.3 -6.7 -2.3 -7 -0.6 -12.2 1.7 -5.6 1.4 -7.5 -1.1 -7.5 -0.8 0 -2.3 -0.9 -3.4 -2 -1.1 -1.1 -3.4 -2.3 -5 -2.7 -4.2 -0.8 -5.5 2.8 -4 11.7 1.5 9.1 3.7 32.1 5.1 53.8 l1.3 18.2 3.6 0 c2 0 4 0.3 4.4 0.7 0.9 1 8.7 4.1 10.5 4.2 0.9 0.1 1.1 -0.6 0.6 -2.1z m32.5 -4.7 c0 -0.5 -0.6 -1.3 -1.3 -1.9 -1.3 -1.1 -7.6 -14.2 -12 -24.7 -1.4 -3.3 -3.3 -9.4 -4.2 -13.5 -0.9 -4.1 -2.1 -8.4 -2.7 -9.4 -0.6 -1.1 -1.3 -8.6 -1.6 -16.6 l-0.5 -14.7 -2.7 3 c-2.3 2.6 -2.6 3.5 -1.9 6.1 1.9 7 3.9 15.5 5.4 22.6 2.2 10.9 7.1 28.8 8.3 30.3 0.6 0.6 1.8 3.2 2.8 5.7 3 7.4 10.4 16.8 10.4 13.1z m-390.8 -7.8 c7 -8.8 7.7 -10.2 7.8 -14 0 -3.9 -0.9 -4.1 -3.7 -1 -3.1 3.3 -11.4 21.7 -9.8 21.7 0.2 0 2.7 -3 5.7 -6.7z m249.3 0.8 c-2.7 -1.6 -17.1 -16.1 -25 -25.2 -3.7 -4.1 -10.9 -9.9 -12.4 -9.9 -4.1 0 4.8 10.4 20.9 24.6 11.8 10.3 14.7 12.4 17.5 12.4 1.6 0 1.5 -0.3 -1 -1.9z m53.3 -7.3 c0 -4.9 0.6 -10.5 1.6 -13.7 3 -10 1.6 -14.7 -3.6 -12 -2 1.1 -2.1 1.7 -1.5 13.3 0.8 14.1 1.6 20.6 2.8 20.6 0.4 0 0.7 -3.7 0.7 -8.2z m-88.3 2.5 c-1.1 -4.6 -7.3 -19.7 -10.2 -24.8 -2.2 -4 -2.7 -6.1 -2.7 -12.4 -0.1 -4.2 0.2 -9.5 0.7 -11.9 0.5 -2.9 0.4 -4.1 -0.3 -3.7 -2.3 1.4 -5.2 9.1 -6.2 16.9 -1 7.1 -0.9 9 0.7 13.8 0.9 3.1 2.7 6.9 3.9 8.4 3.4 4.3 14 16.4 14.4 16.4 0.2 0 0.1 -1.2 -0.3 -2.7z m36.7 -6.9 c4.6 -1.5 4.6 -1.5 4.1 -5.5 -0.4 -2.4 0.1 -5.6 1 -8.2 0.9 -2.3 2.7 -8.9 4.1 -14.7 4.6 -19.4 7.4 -29.8 9.1 -33.5 1 -1.9 1.5 -3.8 1.3 -4.1 -0.3 -0.3 -2.1 0.4 -3.9 1.4 -6.9 4 -19.7 5.2 -26.3 2.6 -1.6 -0.6 -1.8 -0.4 -1.1 1.2 0.5 1 1.2 14.7 1.5 30.4 0.4 15.7 0.8 28.6 0.9 28.7 1 1.3 3.4 3.3 4 3.3 0.4 0 2.8 -0.7 5.3 -1.6z m21.6 -3.1 c0.6 -1.6 2.2 -5.7 3.5 -9.3 1.4 -3.6 2.9 -7.8 3.3 -9.5 0.4 -1.6 1.5 -4.7 2.6 -6.8 2.3 -4.6 1.5 -6 -5 -8.8 -3.9 -1.7 -4.3 -2.1 -3.1 -3.5 0.8 -0.9 3.3 -2.5 5.6 -3.5 l4.3 -1.8 0 -5.7 c0 -3.8 -0.9 -7.9 -2.5 -12.1 -1.4 -3.5 -2.3 -6.8 -2 -7.3 0.7 -1.1 5.2 0.2 10.2 2.8 3.8 2 12.8 5.2 14.7 5.2 0.5 0 -0.2 -1.2 -1.6 -2.7 -1.4 -1.6 -3.5 -4.7 -4.6 -6.9 -3.2 -6.4 -7.4 -9.4 -13 -9.4 l-4.7 0 -4.2 8.8 c-2.4 4.8 -4.3 9.1 -4.3 9.6 0 0.4 -0.7 2.2 -1.5 3.9 -1.3 2.9 -2.5 7.3 -8.5 31.2 -1.1 4.4 -2.9 11.5 -4.1 15.8 -2.1 7.4 -2.1 7.8 -0.4 9.7 1.7 1.9 4.2 2.6 10.6 2.9 3.1 0.1 3.8 -0.3 4.7 -2.6z m-78.4 -13.5 c-1 -4.3 -0.7 -10.9 0.7 -17.8 1.3 -6.5 3.1 -10.3 7 -14.8 1.6 -1.8 2.9 -4.1 2.9 -5 0 -1 0.4 -2.2 0.8 -2.8 0.5 -0.5 1.9 -5.4 3.1 -10.9 1.3 -5.5 2.9 -12.3 3.7 -15.1 0.7 -2.8 2.5 -12 4 -20.5 5.9 -34.7 5.9 -44.5 0 -51.4 -4 -4.7 -5.9 -3 -11.1 10.3 -2.5 6.5 -5.7 13.1 -7 14.7 -2.3 2.8 -2.6 2.9 -3.9 1.2 -2 -2.5 -0.4 -9.2 4.3 -19.1 4.6 -9.4 5.9 -14.9 4.1 -17.1 -1.9 -2.3 -4 -1.8 -4 0.9 0 1.4 -0.5 3.7 -1 5.1 l-1 2.7 -4.6 -4.1 c-2.6 -2.2 -5 -3.9 -5.4 -3.6 -0.4 0.2 -1 2.6 -1.3 5.2 -0.3 2.6 -1.4 6.8 -2.5 9.3 -4 9.4 -20.4 26.9 -25.2 27 -4.2 0 -12.8 -7.9 -20.1 -18.5 l-3.4 -5 -0.6 5.3 c-0.6 4.9 -1.3 5.8 -9.2 14.2 -7.7 8.1 -8.6 9.4 -9.2 13.7 -0.3 2.7 -1.5 8.3 -2.6 12.5 -2.8 10.9 -1.2 25.1 3.3 28.5 2 1.5 11.8 5.3 13.8 5.3 0.9 0 6.1 -1.8 11.6 -4.1 15.7 -6.4 28.6 -10.9 32 -10.9 1.8 0 3.8 0.8 4.9 2 1.6 1.8 1.7 2.3 0.4 4.7 -2.4 4.6 -12.4 8.3 -27.5 10.3 -14.2 1.9 -21.2 4.4 -23.5 8.6 -2.9 5.5 -0.3 25.5 3.9 30.6 l2.5 2.9 10.1 -0.4 c12.6 -0.6 25 -2.2 28.6 -3.7 2.9 -1.2 3.4 -2.9 6 -17.7 0.6 -3.5 1.7 -8 2.4 -10 0.7 -2.1 1.9 -7.2 2.6 -11.3 0.7 -4.1 2.2 -9.7 3.3 -12.5 2.5 -6.3 5.7 -20.3 6.3 -27.5 1.1 -13.8 1.5 -16 3.1 -16 2.3 0 4.2 3 4.3 6.6 0 3.7 -4.3 18.5 -6.9 23.4 -1 1.9 -2.5 6.4 -3.4 10 -0.9 3.6 -2.6 9.1 -3.7 12.2 -1.4 4 -2 8.4 -2.1 14.5 0 4.9 -0.6 14.2 -1.2 20.8 -0.7 6.6 -1.1 12.8 -0.9 13.7 0.2 0.9 1.7 1.8 4 2.2 2.2 0.3 4.2 1.4 5 2.6 2 3.2 3.5 2.5 2.6 -1.2z m-13.5 -4.5 c0 -1.6 0.4 -6.4 1 -10.8 0.5 -4.4 1 -10.5 1 -13.5 0 -5.4 0 -5.4 -1.3 -2.5 -0.7 1.7 -1.8 6.2 -2.4 10.2 -1.4 8.3 -2.8 11.9 -5.1 12.8 -0.9 0.4 -4.7 1.1 -8.6 1.6 -23.5 3.1 -24 3.4 -8 3.9 8.3 0.3 16.9 0.7 19.2 0.8 4 0.2 4.2 0.1 4.2 -2.5z m-46.8 -0.2 c-4 -1.1 -5.9 -5 -7.7 -15.7 -3.5 -21.2 0.3 -25.8 23.6 -28.8 13.3 -1.8 20.2 -3.7 24.6 -7.1 3.5 -2.7 4.3 -4.8 2.2 -6.1 -1.4 -0.9 -6 -1 -7.4 -0.2 -0.5 0.3 -2.5 0.9 -4.4 1.3 -3.3 0.7 -17.6 6.4 -26.6 10.6 -5.7 2.6 -11.8 2.3 -18.4 -0.9 -6.8 -3.4 -9.4 -7.8 -10.4 -17.8 -0.6 -5.9 -0.3 -8 1.3 -12.3 1.2 -2.8 2.4 -7.7 2.7 -10.7 0.7 -5.5 0.7 -5.6 -1.4 -4.3 -3 1.9 -3.6 0.6 -1.6 -3.2 2.9 -5.7 3.1 -15.8 0.4 -23.1 -2.9 -7.8 -4.5 -9.8 -3.6 -4.3 2.8 16.4 1.8 22.6 -4.4 27.8 -2.5 2.2 -3.5 2.5 -5.5 1.7 l-2.5 -1 0 12.8 c0 7 -0.3 15.1 -0.6 18 l-0.7 5.2 3.6 0 c9.1 0 15.5 5.4 17.6 15 0.7 3 1.9 7.8 2.7 10.5 0.7 2.8 2.3 8.7 3.4 13.2 1.1 4.5 3.6 10.9 5.5 14.2 3.3 5.5 3.9 6.1 6.8 6 2.9 -0.1 3 -0.2 0.8 -0.8z m199.9 -7.7 c-2.2 -16.9 -3.3 -30.1 -2.7 -32.6 1 -3.9 4 -4.4 9.4 -1.4 2.5 1.5 4.8 2.5 5 2.3 0.6 -0.7 -12.2 -9.7 -13.8 -9.7 -0.8 0 -2.8 1.3 -4.4 3 -2.5 2.6 -8.5 6.3 -11 6.6 -0.5 0.1 -1.3 0.2 -1.7 0.3 -0.4 0 1.2 2.1 3.5 4.5 4 4.2 7.6 11.9 14.2 30.9 1 2.7 1.9 4.6 2.1 4.4 0.2 -0.2 0 -3.9 -0.6 -8.3z m16.6 -11.1 l-0.6 -6.8 1.6 3.5 c1.8 3.7 1.9 3.6 2.9 -2.3 0.4 -2.3 2 -5.3 4.1 -7.7 2 -2.2 3.3 -4.4 2.9 -5.1 -0.4 -0.6 -0.8 -10.9 -0.9 -22.8 l-0.2 -21.6 -3.4 -8.5 c-5.5 -14.2 -15.1 -24.4 -29.3 -31.5 -22.2 -10.9 -47.5 -8.5 -53.3 5.2 -0.8 1.8 -1.4 3.4 -1.4 3.6 0 0.3 4.2 0.7 9.3 0.9 5.6 0.3 10.4 1.1 12.2 2.1 1.7 0.9 5 2.5 7.5 3.5 2.5 1.1 6.9 4.1 9.9 6.6 7.2 6.2 8.4 5.9 9.2 -2.6 0.6 -7.8 2 -9.8 6.3 -9.8 4.7 0 7.5 3.5 9.2 11.4 1.1 5.3 2.4 7.9 6.3 12.9 5.8 7.3 10.5 16.7 12.2 24.1 1.8 8 0.8 15 -3.5 24.4 -2.7 6 -3.8 9.7 -3.8 13.5 -0.1 5 1.7 13.7 2.8 13.7 0.3 0 0.3 -3 0 -6.7z m-287.9 -10.1 c-2.2 -2.1 -2.8 -2.3 -4.1 -1.3 -2 1.7 -1.2 2.9 2.8 4.6 4 1.7 4.7 0.1 1.3 -3.3z m-7.9 -1.4 c-0.3 -0.7 -3.6 -3.7 -7.4 -6.6 -3.8 -2.8 -8 -6.5 -9.4 -8 -1.4 -1.5 -3.4 -3.4 -4.4 -4.2 -2 -1.5 -2 -1.5 0 1.9 1 1.8 4.6 5.7 7.9 8.5 9.9 8.6 14.2 11.3 13.3 8.4z m21.8 -3.6 c2.4 -8.2 7.4 -17 11.8 -20.9 l4.4 -3.9 0.4 -19.7 c0.4 -24.6 0.4 -24.5 -9.9 -19.1 -8.6 4.4 -10.5 4.2 -20.1 -2.3 -3.9 -2.6 -8 -4.6 -9.7 -4.7 l-3 -0.1 0.1 7 c0.1 5.2 0.9 8.7 2.9 13.5 l2.7 6.4 -3.6 2.9 -3.7 2.9 0.7 7.4 0.7 7.3 -2.7 0.7 c-1.5 0.3 -2.9 0.4 -3.2 0.2 -0.2 -0.3 -0.9 -3.4 -1.5 -6.9 -1.1 -6.7 -3.4 -10.3 -7.6 -12 -3 -1.1 -4.8 -0.3 -6.2 2.7 -1.8 4.1 -1.4 5.3 5.5 13.5 7.4 8.7 18.6 18.5 25.1 21.8 2.4 1.2 6.4 3.5 9 5.1 2.6 1.7 5.2 2.9 5.7 2.7 0.6 -0.2 1.6 -2.2 2.2 -4.5z m7.4 1.2 c2.7 -2.5 4.4 -5.2 5.4 -8.5 2.1 -7 3 -13.9 1.8 -13.9 -1.8 0 -8 7.7 -9.2 11.6 -0.7 2.2 -1.8 4.8 -2.5 5.9 -0.7 1.1 -1.6 3.5 -1.9 5.3 -1 4.4 1.2 4.3 6.4 -0.4z m282 -6.7 c0 -0.6 0.8 -2 1.8 -3.1 1.1 -1.2 2.7 -5.7 3.6 -10.1 3.9 -18.1 4.9 -21.8 6.8 -25.1 1.9 -3.3 4.5 -5.4 6.7 -5.4 1.8 0 4.1 3.1 4.1 5.6 0 2.9 2.4 3.2 5.2 0.7 2.2 -2 2.3 -3.3 0.2 -3.3 -2.2 0 -14.7 -12.8 -20.7 -21.2 -2.6 -3.7 -4.7 -6.9 -4.7 -7.2 0 -0.3 -1.3 -2.7 -2.9 -5.4 -1.6 -2.7 -3.2 -6 -3.6 -7.3 -2.3 -7.4 -9.3 -21.9 -11.9 -24.7 -7.3 -8 -25.5 -13.2 -41.5 -11.8 -6.3 0.5 -7.9 1 -9.6 2.9 -1.1 1.3 -6 4.6 -11 7.2 -4.9 2.7 -11.2 7 -14 9.5 -2.7 2.6 -6.5 5.7 -8.2 6.9 -3.9 2.7 -4.2 5.1 -0.9 8.6 1.3 1.4 2.8 4.2 3.3 6.2 1.1 4.8 3 5.3 3.8 1 1.6 -8.1 14 -14.7 27.9 -14.7 4.2 0 8.4 0.4 9.4 0.9 0.9 0.5 4.2 1.4 7.2 2.1 6.5 1.5 18.5 7.7 24.8 12.8 3.9 3.2 13.2 14.2 13.2 15.6 0 0.3 1.1 2.9 2.5 5.8 3.8 8.3 4.4 12.9 4.5 33.5 0 10.5 0.3 19.8 0.6 20.7 0.6 1.6 3.4 1.1 3.4 -0.7z m-11.5 -12.5 c0.8 -5.1 -0.8 -13.5 -4.1 -20.1 -1.3 -2.8 -2.4 -5.5 -2.4 -6 0 -0.5 -2.5 -4.1 -5.6 -8 -4.5 -5.8 -5.7 -8.3 -6.9 -13.7 -1.5 -7.2 -4.4 -11.4 -8 -11.4 -3.4 0 -4.5 2 -4.5 8.5 0 10.1 -3.6 11.2 -12.8 3.5 -7.5 -6.3 -19 -11 -28.7 -11.7 -10.2 -0.8 -10.4 -0.3 -7.5 14 2.3 10.7 4.8 16.6 8.4 19.6 1.8 1.5 2.3 9.6 0.6 10.6 -0.5 0.3 -1 1.5 -1 2.6 0 1.6 0.7 1.9 4.4 1.9 5.5 0 9.8 3.3 12.8 9.6 3 6.6 8.9 11.4 13.7 11.4 5.4 0 8 -1.1 13.5 -5.9 3.9 -3.4 5 -3.9 7 -3.1 2.6 1 14.1 9.4 15.2 11.1 0.8 1.4 5 -7.8 5.9 -12.9z m-89.9 8.2 c5.6 -2.8 7.1 -5.7 9 -17.4 0.9 -5.8 2.3 -11.7 3 -13.2 0.8 -1.5 1.4 -3.4 1.4 -4.3 0 -6 -23.3 -22.5 -31.8 -22.5 -3.2 0 -8.4 2.1 -10.8 4.4 -0.6 0.6 -2.6 2.4 -4.4 4 l-3.3 2.8 0.5 12.2 c0.6 13.7 1.9 19.7 5.6 27.5 4 8 6.6 9.3 17.8 8.8 6.3 -0.3 10.3 -1 13 -2.3z m121 -25.5 c2.5 -2.6 3.3 -8 1.5 -10.7 -1.6 -2.6 -5.2 -0.9 -7.8 3.8 -2.3 4 -6.3 19.5 -6.3 24.4 0 1.1 2.3 -1.9 5.1 -6.5 2.7 -4.6 6.1 -9.5 7.5 -11z m-107.5 10.3 c1.9 -4.3 2.7 -16.2 1.1 -16.2 -0.9 0 -3.9 11.5 -4.7 18.5 -0.7 5.7 0.3 5 3.6 -2.3z m-230.4 0.7 c0.8 -0.8 1 -3.4 0.6 -7.7 -0.6 -6.4 -0.6 -6.6 2.5 -9.2 l3.1 -2.6 -2.5 -7.9 c-4.8 -15.1 -4.3 -20.5 2 -20.5 2.1 0 4.8 1.1 7.5 3.1 6.8 4.8 10.9 6.9 14.1 6.9 3.5 0 14 -5.6 14 -7.4 0 -3 -3.3 -10.6 -4.6 -10.6 -0.8 0 -1.4 -0.4 -1.4 -0.9 0 -0.5 -1.9 -1.7 -4.2 -2.6 -5.7 -2.4 -22.1 -2.4 -29.7 -0.2 -10.2 3.1 -18.6 9.8 -21.6 17.1 -1.9 4.6 -2.8 14.9 -2 22.3 l0.7 6.6 2.4 -2.7 c1.4 -1.4 3.6 -2.6 4.9 -2.6 3.7 0 9.3 5.5 10 9.8 0.3 2 0.8 5.2 1.1 7 0.5 3.4 1.3 3.9 3.1 2.1z m150.6 -33.1 c0.2 -5.8 -0.5 -9 -1.7 -7.7 -0.2 0.2 -0.6 5.6 -0.9 11.9 -0.6 11.2 -0.6 11.4 0.9 7 0.8 -2.5 1.6 -7.5 1.7 -11.2z m202.3 9.6 c5.7 -3.8 6.6 -9.3 5.3 -35.9 -2.3 -47.4 -8.2 -81.2 -16.8 -95.4 -6.6 -10.9 -16 -17.6 -28.8 -20.6 -3.7 -0.9 -7.1 -1.9 -7.7 -2.4 -0.6 -0.4 -3.8 -1.3 -7 -2 -14.4 -2.7 -18.8 -0.4 -13.3 7.2 4.4 6.3 3 23 -3.4 38.8 -1.6 4.2 -4.8 5.4 -9.2 3.5 -4.6 -1.9 -4.7 -1.2 -0.7 7.2 4.2 8.8 6.2 15.1 5.5 17.3 -0.5 1.5 -1.6 1.9 -5.3 1.9 -2.6 0 -6 -0.7 -7.5 -1.5 -3.5 -1.8 -7.7 -0.5 -7.7 2.5 0 1.9 0.6 2 9.8 2 10.3 0 21.4 1.9 26.3 4.5 1.6 0.8 4.1 2.2 5.7 3 1.5 0.8 4 2.7 5.5 4.3 3.1 3.2 8.9 14.8 11 22 2.2 7.4 9.3 18.9 18.8 30.7 6.7 8.2 9.3 10.8 13.4 12.9 3.6 1.9 3.1 1.9 6.1 0z m-128.5 -12.4 c-0.6 -2.8 -1.1 -6.4 -1.1 -8 0 -4.4 -1.8 -7.4 -5.5 -9.4 -3.5 -1.9 -4.5 -3.9 -4.5 -9.2 0 -4 -1.4 -4.5 -8.5 -3.4 -9.4 1.5 -14.9 6.8 -20 19.1 -1.9 4.6 -3.5 9 -3.5 9.7 0 1.8 1.5 1.5 3.6 -0.9 3.1 -3.5 9 -5.9 14.1 -5.9 6 0 12.9 3.2 20.3 9.4 2.9 2.5 5.6 4.4 5.8 4.1 0.2 -0.2 -0.1 -2.7 -0.7 -5.5z m-44.6 0.3 c4.4 -21.3 14.7 -32.3 30.4 -32.3 3.3 0 4.1 -0.4 4.1 -1.9 0 -1.5 -1 -1.9 -5.3 -2.4 -6.6 -0.8 -10.3 0.2 -16 4.5 -6.8 5 -11.1 12.1 -12.6 20.9 -0.7 4.1 -1.7 8.9 -2.1 10.7 -0.5 1.8 -0.5 3.2 0.1 3.2 0.5 0 1.1 -1.2 1.4 -2.7z m-123.7 -3.8 c4 -4.4 4.7 -8.4 3.2 -18.1 -2 -13.6 -2.7 -15.4 -6.7 -17.1 -6.8 -2.8 -13.3 0.5 -13.3 6.7 0 1.3 1 4.8 2.1 7.6 2.1 5 2.4 5.3 8 6.9 5 1.4 5.9 1.9 5.9 3.9 0 2.7 -3.7 5.6 -7.1 5.6 -1.8 0 -2 0.4 -1.4 2.7 1.5 6.3 4.9 6.9 9.3 1.8z m-72.5 -11.5 c9.1 -10.2 32.1 -15.1 47.3 -10.1 3.2 1.1 5.9 1.9 6 1.8 0.1 -0.1 -0.1 -1.7 -0.3 -3.5 -1 -6.6 -12.7 -10.7 -30.8 -10.6 -11.2 0 -14.9 1.2 -21 6.5 -5.2 4.6 -7.4 10.1 -8.1 20.1 l-0.6 8.3 2.6 -5 c1.5 -2.7 3.6 -6.1 4.9 -7.5z m86.7 9.1 c0 -0.5 3.3 -4.1 7.3 -8 l7.2 -7.1 0 -6.9 0 -6.9 -5.4 -6.3 c-6.1 -7.2 -9 -9.8 -10.8 -9.9 -0.6 0 -1.9 2.6 -2.7 5.8 -0.9 3.1 -2.1 6.5 -2.6 7.4 -1.3 2.3 -1.3 7.5 0 8.3 1.4 0.9 3.8 10 4.5 17.8 0.4 3.7 1.1 6.7 1.6 6.7 0.5 0 0.9 -0.4 0.9 -0.9z m46 -6.1 c1.5 -1.1 4.8 -4.4 7.5 -7.5 l4.8 -5.6 -3.6 0.6 c-4.8 0.9 -12.7 -1 -20.7 -5 -7.4 -3.8 -12.2 -8.3 -14.4 -13.7 -2.6 -6.2 -3.6 -5.5 -3.6 2.3 0 6.9 0.2 7.6 4.2 13.4 6.1 8.7 9.6 12.6 14.2 15.8 4.4 3.1 7 3 11.6 -0.3z m-62.9 -0.2 c1.2 -1.8 0.4 -2.5 -5.5 -4.3 -4.7 -1.5 -5.7 -2.3 -7 -5.4 -1.4 -3.3 -1.5 -3.4 -1.5 -1 -0.1 1.5 0.7 3.7 1.7 5 1 1.3 2.4 3.7 3.2 5.2 1.3 2.6 1.8 2.8 4.9 2.3 1.9 -0.3 3.8 -1.1 4.2 -1.8z m166.9 -7.3 c0 -2.4 -3.3 -8.6 -4.4 -8.2 -2 0.6 -1.7 4.3 0.4 7 2.4 3 4 3.5 4 1.2z m-93.5 -7.1 c5.2 -1.4 11.6 -18.9 9.6 -26.2 -0.6 -1.9 -0.8 -3.9 -0.5 -4.4 0.3 -0.5 0 -2.2 -0.6 -3.9 -1.6 -3.8 -6.7 -5.3 -14 -3.9 -2.9 0.5 -8.9 1 -13.4 1 -9.1 0 -12.6 1.5 -16.9 7.2 -2.3 3 -2.5 3.8 -1.6 7.7 1.3 5.9 3.1 9 7.2 12.8 3.4 3.1 13.8 8.6 18.2 9.6 2.9 0.7 9.7 0.8 12 0.1z m-63.6 -15.8 c0.5 -0.6 1.2 -3 1.6 -5.3 0.6 -3.9 0.5 -4.3 -1.4 -4.3 -3.2 0 -5.1 3.8 -5.1 10 0 7.1 2.1 9.9 3.3 4.4 0.4 -2.1 1.1 -4.2 1.6 -4.8z m23.6 -14.8 c0.8 -6.1 4.8 -9.5 11.4 -9.7 2.4 0 6 -0.5 8 -1.1 6.5 -1.7 16.5 -2.3 20.6 -1.1 6.1 1.7 9.4 4.9 10.9 10.6 0.7 2.8 1.7 4.9 2.2 4.8 1.1 -0.2 7.7 -2.7 8.3 -3 0.2 -0.1 -2.1 -2.9 -5 -6.1 -3.7 -4 -5.9 -7.5 -7.2 -11.3 -0.9 -2.9 -2.9 -9.2 -4.4 -13.8 -4.5 -14.4 -11.6 -19.9 -26.7 -20.8 -6.7 -0.4 -9.1 -0.1 -13.8 1.7 l-5.8 2.1 0 5.3 c0 5.7 -1.7 8.3 -4.6 7.2 -1.3 -0.5 -1.5 -1.5 -1.1 -4.4 0.3 -2 0.8 -4.6 1.3 -5.6 0.6 -1.7 0.4 -1.8 -2.2 -1.2 -3.7 0.9 -7.9 5.7 -9.9 11.5 -1.3 3.8 -1.4 7.5 -0.9 21.8 l0.7 17.3 3.3 2.2 c1.8 1.2 5.2 4.7 7.6 7.6 l4.2 5.4 1.2 -7.4 c0.7 -4 1.5 -9.4 1.9 -12z m139.5 11.7 c2.5 -2.3 8.4 -6.3 13.2 -8.8 13.7 -7.5 14.3 -10.3 1.1 -5 -3.8 1.5 -9 4.3 -11.7 6.2 -5 3.6 -10.6 10.3 -10.6 12.9 0 1.7 0.9 1.1 8 -5.3z m-76.4 -2 c0.3 -1.9 0.4 -4.2 0 -5 -0.7 -2 -5.5 -1.9 -8.5 0.1 l-2.3 1.6 2.9 1.8 c1.5 0.9 3.4 2.4 4.2 3.3 2 2.5 2.9 2.1 3.7 -1.8z m-55.1 -15.5 c0.8 0 1.7 -0.4 2 -1 0.3 -0.5 -0.3 -1 -1.4 -1 -2.6 0 -6.1 3.4 -6.1 5.8 0.1 1.3 0.5 1.1 2.1 -1 1.1 -1.6 2.7 -2.8 3.4 -2.8z m22.5 -3.5 l5.5 -1.4 -6.4 0.2 c-4.1 0.1 -6.6 0.7 -6.9 1.5 -0.5 1.5 0.9 1.5 7.8 -0.3z m158 -5.1 c0 -2.8 -7.5 -21 -9.7 -23.4 -1.1 -1.2 -1.3 0.4 -1.5 9.8 -0.1 6.2 -0.2 12 -0.2 12.9 -0.1 1.9 2.9 3 8.2 3.2 2.8 0.1 3.2 -0.2 3.2 -2.5z m-14.4 -1.5 c0.3 -0.6 -0.1 -1.8 -1 -2.7 -0.9 -0.9 -1.6 -1.1 -1.6 -0.5 0 0.6 -0.3 1.8 -0.6 2.7 -0.7 1.8 2.1 2.3 3.2 0.5z m2.4 -18.1 l0 -15.2 -3.2 3 c-1.8 1.6 -3.7 3.2 -4.2 3.6 -0.5 0.4 0.1 2.3 1.3 4.3 1.4 2.4 2.1 5.3 2.1 8.5 0 2.7 0.5 5.2 1 5.5 0.6 0.3 1 1.7 1 3.1 0 1.3 0.5 2.4 1 2.4 0.6 0 1 -5.7 1 -15.2z m-10.7 -0.4 c3.6 -2.4 3.7 -2.7 2.4 -4.7 -2.3 -3.5 -4.2 -3.2 -5.6 1 -0.7 2.1 -1.5 4.4 -1.7 5.1 -0.8 1.9 0.8 1.4 4.9 -1.4z m-168.7 -5 c0.4 -1.4 0.2 -3 -0.5 -3.7 -1.4 -1.4 -1.7 -1 -2.6 3.1 -0.5 2.5 -0.3 3.2 0.9 3.2 0.9 0 1.9 -1.2 2.2 -2.6z m194.6 -0.1 c1.9 -2.3 2.6 -4.2 5 -13.8 3.1 -12.2 3.3 -17.2 0.9 -22.7 -2.4 -5.6 -3.7 -6.1 -4.4 -1.5 -1.1 7.5 -3.6 13.7 -8 19.9 -2.6 3.6 -5.4 7.1 -6.2 7.8 -2.5 2.1 -1.7 4.6 2.5 8.4 4.4 3.9 7.9 4.6 10.2 1.9z m-6.4 -20.7 c3 -4.1 5.1 -10.5 6.7 -19.8 1.1 -6.7 -1 -4 -2.8 3.5 -0.9 3.9 -3.1 10 -4.7 13.4 -4.3 8.9 -4.1 9.7 0.8 2.9z m-49.1 -10.2 c0.4 -1 -0.6 -2.7 -2.7 -4.7 -3.1 -3.1 -3.2 -3.1 -2.5 -0.7 2.1 7.1 3.8 8.9 5.2 5.4z m-12.2 -15.9 c1.7 -2.2 3.2 -2.7 11.2 -3.6 9.9 -1.1 11.1 -1.5 18.8 -6.9 4 -2.8 6 -3.5 9.6 -3.5 4.2 0 5.2 0.5 9.8 4.8 4 3.7 5.8 4.8 7.9 4.5 2.6 -0.3 2.7 -0.4 2.5 -6.3 -0.3 -7 1.2 -12.5 3.4 -12.5 1.3 0 1.4 -0.8 0.8 -4.7 -1.6 -11.6 -9.8 -21.1 -22.7 -26.5 -6.4 -2.7 -7.9 -3 -16.2 -2.6 -7.5 0.2 -10.1 0.8 -15.1 3.2 -6.9 3.3 -12.6 9.6 -15.1 16.6 -0.9 2.5 -2.1 5.5 -2.7 6.8 -1.5 3.1 -1.5 20.4 0 23.3 0.7 1.3 1.9 4.1 2.7 6.2 1.8 4.4 2.4 4.5 5.1 1.2z"/>
 </g>
</svg>