<svg width="638" height="561" xmlns="http://www.w3.org/2000/svg" preserveAspectRatio="xMidYMid meet">

 <g>
  <title>Layer 1</title>
  <g id="svg_3" fill="#ffffff">
   <path id="svg_4" d="m382,460.8c-8.4,-2.4 -12.9,-9.6 -11.4,-18.6l0.6,-3.9l-10.2,-0.7c-10.3,-0.6 -18.1,-2 -21.2,-3.6c-0.9,-0.5 -4.7,-1.5 -8.3,-2.2c-6.3,-1.1 -6.8,-1.1 -8.1,0.7c-1.4,1.9 -3.7,2 -46.2,2.7c-29.1,0.5 -46,0.4 -48.4,-0.3c-7.6,-2 -12.8,-9 -12.8,-17c0,-2.7 -0.4,-3.9 -1.4,-3.9c-0.8,0 -1.7,0.4 -2.1,0.9c-0.3,0.5 -2,1.3 -3.8,1.6c-1.7,0.4 -6.5,2 -10.4,3.6c-6.3,2.5 -8.3,2.8 -14.8,2.5c-7.3,-0.4 -7.5,-0.3 -7.5,1.9c0,3.2 -4.2,4.6 -13.1,4.6c-4.1,-0.1 -12.1,0 -17.8,0.1c-11,0.3 -10.6,0.1 -13,6.1c-1,2.5 -1.5,2.7 -6.7,2.7c-5.9,0 -6.8,0.6 -13.1,8.3c-2,2.4 -3,2.7 -8.2,2.7c-3.3,0 -6.3,-0.4 -6.6,-1c-0.9,-1.5 -2.5,-1.2 -2.5,0.4c0,0.8 -0.7,1.7 -1.6,2c-2.1,0.8 -24.1,0.7 -45.7,-0.3c-17,-0.8 -18.1,-1 -23.5,-3.8c-8.2,-4.3 -7.5,-5.6 0.9,-1.4l7.1,3.5l27.2,0.6c14.9,0.3 28.6,0.3 30.4,0.1c3.7,-0.4 4,-1.9 1.6,-7.6c-2,-4.8 -1.1,-8.7 3.2,-14.7c2.7,-3.8 3.1,-4.8 1.7,-4.8c-3,0 -13.7,-4.2 -17,-6.6c-8.2,-6.2 -29.9,-5.4 -35.4,1.2c-3.4,4.2 -9.2,7.4 -13.4,7.4c-4.6,0 -6.5,-1.3 -6.5,-4.7c0,-4.2 8.6,-12.1 15.8,-14.4c2,-0.6 1.6,-0.7 -1.8,-0.3c-8.8,1.2 -12.9,5 -15.4,14.5c-2.4,9.3 -3.3,10.9 -6,10.9c-1.3,0 -2.9,-0.7 -3.6,-1.5c-1.9,-2.3 -1.2,-19.1 1,-22c0.4,-0.5 1.3,-2.7 2,-4.8c0.8,-2.5 4.5,-7.4 10.6,-13.8c13,-13.7 14.5,-17 15.5,-33.4c0.8,-15.1 1.2,-16.7 5.2,-26c3.4,-8.1 8.5,-14.9 16.1,-21.5c7.6,-6.6 9.7,-8 21.8,-14.3c5.9,-3.1 12.3,-6.7 14.1,-8.1c5,-3.8 5.7,-3.4 5.7,3.2c0,11.7 5.5,37.1 8.8,40.4c0.8,0.8 2.3,0.8 5.4,-0.2c2.4,-0.8 4.5,-1.7 4.8,-2.1c0.3,-0.3 2.4,-1.6 4.7,-2.8c5.7,-2.8 6.2,-4.1 2.8,-6.5c-10.2,-7.4 -16.7,-14 -19.9,-20.4c-5.1,-10.2 -7.6,-24.4 -7.6,-43.5c0,-20.7 1,-24.7 7.6,-31.4c7.1,-7.1 12.9,-8.8 27.9,-8c11.5,0.6 15.5,1.5 21.7,4.8c4.1,2.2 5.8,1.9 5.8,-1.1c0,-2.1 4.2,-5.8 7.8,-6.7c1.4,-0.3 3.9,0.1 5.9,1.1c2,0.9 3.7,1.6 3.8,1.4c0.2,-0.2 0.4,-2.1 0.6,-4.3c0.4,-5.2 3.2,-9.3 6.6,-9.7c3.8,-0.4 4.2,-2.8 3.6,-21c-0.6,-15.6 -0.6,-15.7 2.1,-21.2c3.3,-6.8 8.4,-11.1 12.1,-10.2c1.6,0.4 3.9,-0.1 6.5,-1.4c11.7,-6 28.9,-4 38.2,4.4c3,2.7 6.8,9.6 6.8,12.4c0,1 0.4,2.2 0.9,2.8c0.5,0.5 1.6,3.6 2.4,6.9c0.9,3.3 2,7.2 2.6,8.7c1,2.8 8.9,12.2 15.7,18.9c3.6,3.6 3.7,3.9 3.1,8.9c-0.3,2.8 -1.8,7.3 -3.3,9.8c-4.9,8.8 -8,20.2 -5.4,20.2c1.1,0 8,-13.5 8,-15.6c0,-0.7 1.4,-3.9 3,-7.3c2.7,-5.4 3.4,-6.1 5.9,-6.1c3.7,0 7.7,4.6 8.7,9.7c1,5.4 -0.2,28.8 -2,37.3c-0.9,4.1 -2.5,12.8 -3.6,19.2c-1.1,6.5 -2.4,12.6 -2.9,13.5c-0.5,1 -1.9,6.5 -3.1,12.3c-1.2,5.8 -2.6,11.2 -3.1,12.1c-1.3,2.5 -0.3,2.7 4.9,1.3c10.6,-2.9 14.6,-4.5 18.5,-7.4c2.2,-1.6 4.8,-3 5.6,-3c1.2,0 1.2,-0.2 -0.1,-1.7c-5.1,-6.1 -8.5,-18.7 -9.3,-34.7c-0.3,-4.9 -0.9,-9.4 -1.5,-10c-1.2,-1.2 -1.3,-5.7 -0.1,-8.8c0.5,-1.3 1.4,-5.4 2.1,-9.3c1.6,-9.2 6.1,-16.1 14.2,-21.5c5.8,-3.9 6.3,-4 14.2,-4l8.2,0l1.2,-3.4c3.3,-9 16.9,-18.9 30,-21.6c3.3,-0.8 5.8,-1.9 6.7,-3.3c0.8,-1.1 1.3,-2.2 1.1,-2.5c-0.5,-0.4 -12.5,1.6 -15.1,2.7c-11.3,4.4 -14.9,7.2 -25.5,19.9c-6,7.1 -10,9.3 -10,5.4c0,-1 -0.4,-2.2 -1,-2.8c-1.1,-1.1 -3.5,-39.9 -3.5,-57.5c0,-9.2 0.4,-13 1.4,-14.2c2,-2.5 3.4,-2 1.7,0.6c-0.8,1.2 -1.7,3.7 -2.1,5.6c-0.7,3.5 0.7,32.1 2.5,48.6c0.5,5 1.2,11.6 1.5,14.8c0.4,3.1 1,5.7 1.5,5.7c0.5,0 3.6,-3.3 6.9,-7.3c3.3,-3.9 7.7,-8.9 9.7,-10.9c5.5,-5.3 15,-9.6 24.7,-11.1c7.9,-1.2 8.2,-1.4 8.8,-4.2c1.1,-4.9 1,-17.3 -0.1,-18c-0.6,-0.4 -2.4,0.5 -4.1,1.9c-3.4,2.9 -6.9,3.4 -6.9,1c0,-0.8 0.9,-3.6 2.1,-6.1c1.7,-3.7 1.8,-4.7 0.7,-5.4c-0.7,-0.5 -1.8,-0.9 -2.3,-0.9c-0.6,0 -4.4,-2.7 -8.5,-6.1c-4.1,-3.4 -8.5,-6.5 -9.7,-6.9c-1.1,-0.5 -3.4,-2.6 -4.9,-4.7c-1.5,-2.1 -3.1,-4.2 -3.5,-4.6c-0.4,-0.5 -1.5,-0.4 -2.5,0.2c-2.6,1.4 -11.5,5.1 -12.3,5.1c-1.7,-0.1 4.5,-4 7.2,-4.5c1.8,-0.4 4,-1.3 5.1,-2c1.8,-1.4 1.8,-1.6 0.2,-6.2c-2.8,-7.8 -2.9,-8.3 -1.9,-8.3c0.6,0 2.9,1.8 5.1,4.1c4.4,4.3 5.2,7.1 2.7,9.9c-1.3,1.4 -1.2,2 0.8,4.7c1.2,1.8 3.4,3.9 4.9,4.7c1.5,0.9 5.9,4.3 9.9,7.6c11.5,9.4 17.1,9 25.1,-1.5c3.2,-4.2 9.3,-17.3 11.3,-24.3c0.8,-2.7 1.6,-30.3 0.9,-31.4c-0.3,-0.4 -1.1,-0.5 -1.9,-0.1c-1.2,0.4 -1.5,2.4 -1.5,8.7c0,5 -0.5,8.7 -1.2,9.4c-2.3,2.3 -5.7,1.3 -10,-2.9c-4.9,-4.7 -9.9,-7.2 -12.5,-6.2c-1,0.3 -4.9,2.6 -8.6,5c-6.3,4 -7.5,4.4 -16.5,5.3c-9.7,1 -12.1,2.1 -13.4,6.2c-0.8,2.3 -3.5,-0.1 -6.4,-5.8c-2.7,-5.3 -2.9,-6.5 -2.9,-16.8c0.1,-9.9 0.4,-11.9 2.9,-17.9c5.3,-12.8 13.7,-19.7 26.7,-21.9c12.3,-2.1 25.8,1.9 35.1,10.5c8.7,8.1 11.4,16.2 12.3,37.1c0.2,5.4 0.6,10.1 0.9,10.4c0.3,0.3 1.7,0 3.1,-0.6c4.3,-2 17.2,-1.1 23.5,1.5c0.8,0.3 2,0.7 2.5,0.8c21.5,5.1 34.1,15.6 39.1,32.6c0.9,3 1.9,5.9 2.4,6.4c3.2,4.2 8.3,42.4 10.1,74.9c1.4,27.5 1,34.5 -2.6,39.2c-2.9,3.8 -2.7,4 4.5,4.7c17.2,1.7 25.4,5.1 35,14.6c9.8,9.7 12.4,15.6 12.9,29.5c0.3,10.6 0.4,10.8 1.7,7.1c3.2,-9.6 7.7,-5.6 12.1,10.9c4,15 4.2,15.7 6.2,26.2c1.6,8.7 6,20.8 8.1,22.4c2.9,2.1 17,26.8 17,29.6c0,0.8 2.5,4.3 5.5,7.9c3,3.5 5.5,7 5.5,7.7c0,0.6 -1,2.3 -2.2,3.6l-2.3,2.4l4.7,-0.7c4.7,-0.7 4.7,-0.7 6.2,2.8c1.6,4 1.4,3.9 17.6,5.6l9.5,0.9l-11.7,-0.2c-12.7,-0.4 -16.8,-1.7 -16.8,-5.7c0,-2.5 -1.9,-3.3 -5.1,-2.1c-4.8,1.8 -6.4,-0.8 -2.8,-4.6l2,-2.2l-5.5,-6.3c-3.1,-3.4 -5.6,-6.8 -5.6,-7.6c0,-2.2 -6.8,-15 -11.8,-22.4c-4.8,-7 -5.1,-7.4 -9,-13.9c-1.2,-2.1 -3.2,-8.4 -4.3,-14.1c-4.7,-23.8 -10.6,-43.7 -13,-43.7c-0.5,0 -1.6,1.5 -2.6,3.3c-2.7,5 -2.4,25.6 0.6,36.2c3.8,13.9 5.4,19 6.1,20c0.4,0.6 1.3,2.8 2,5c1.5,4.9 9.2,20.6 12,24.5c1.1,1.5 2,3.2 2,3.6c0,0.5 1.1,2 2.4,3.4c7.3,7.7 11.7,12 16.8,16.5c6.9,6 7.8,9.2 3.4,11.3c-6.8,3.4 -11.6,3 -34.6,-3c-6.3,-1.6 -14.5,-3.4 -18.2,-4c-8,-1.4 -9.9,-0.5 -15.5,7.3c-1.9,2.7 -5.4,6 -7.7,7.2c-3.9,2.1 -5.2,2.2 -24.1,2c-25.9,-0.2 -46.2,-2.6 -51.6,-6.1c-1.4,-0.9 -5.2,-3.4 -8.4,-5.6c-4.7,-3.1 -6.1,-3.7 -7.4,-2.7c-0.9,0.6 -2.3,1.4 -3.1,1.8c-0.8,0.3 -4.9,3.2 -9,6.3c-4.1,3.1 -8.5,5.9 -9.7,6.2c-3.4,0.9 -5.8,-2.5 -5.6,-7.8c0.2,-4.5 -1.1,-5.6 -3.5,-3.2c-2.9,2.9 -0.7,9.1 5.2,14.7c4,3.9 4.7,7.5 1.7,9.1c-2.4,1.2 -8.4,1.2 -13.1,-0.2zm13.7,-2.5c0.3,-0.8 0.1,-1.8 -0.4,-2.2c-0.6,-0.3 -2.9,-2.8 -5.2,-5.6c-3.3,-4 -4.1,-5.7 -4.1,-9c0,-4.6 1.4,-6.5 4.7,-6.5c2.1,0 2.3,0.5 2.3,4.8c0,4.8 1.2,7.2 3.8,7.2c0.7,0 4.9,-2.7 9.1,-6c4.3,-3.3 8.3,-6 8.8,-6c1.9,0 2.2,-2.8 0.5,-3.3c-0.9,-0.3 -4.8,-1.7 -8.5,-3l-6.8,-2.5l-6.2,1.9c-3.4,1.1 -8,3.2 -10.3,4.8c-2.2,1.5 -5.3,3.1 -6.9,3.5c-3.9,1 -4.5,2.1 -4.5,8.4c0,6.8 2.2,10.9 6.8,12.9c7.2,3.2 15.8,3.4 16.9,0.6zm-285.6,-12c1.6,-1 3.1,-2.5 3.4,-3.3c1.3,-4 4.5,-6 9.7,-6c5.5,0 8.8,-1.9 8.8,-5.1c0,-0.9 1.1,-2.6 2.5,-3.6l2.5,-1.8l-1.8,-3.7c-1.1,-2 -2.4,-7 -3.1,-11.1l-1.2,-7.5l-4.1,-0.6c-5.1,-0.8 -6,0 -7.8,7.3c-1.6,6.9 -7.8,20.1 -9.8,20.8c-3.2,1.3 -3.6,-5.3 -0.7,-12.2c3.9,-9.5 6.2,-13.8 7.9,-15.1c1.6,-1.1 1.7,-1.4 0.4,-1.4c-1.6,0 -7.3,5.8 -10.5,10.7c-1,1.5 -2.5,3.4 -3.5,4.1c-0.9,0.7 -1.5,1.9 -1.2,2.6c0.3,0.7 -1.1,4.2 -3,7.8c-4.6,8.3 -5,14.6 -1,17.7c3.3,2.6 8.6,2.7 12.5,0.4zm399.3,-1.3c3.4,-1.6 5.6,-3.5 8.5,-7.9c2.2,-3.2 4.7,-6.1 5.6,-6.5c3,-1.1 11.9,-0.6 17.5,1c21.8,6.2 36.5,8.3 44.3,6.1c3.9,-1.1 3.4,-2.9 -2.5,-8.4c-17.8,-16.2 -26.9,-29 -32.9,-46.2c-1,-3 -2.3,-5.9 -2.8,-6.5c-2.3,-2.8 -8.9,-29.9 -9.2,-37.6l-0.1,-4.5l-1.5,6.5c-0.7,3.6 -2.5,13.1 -3.8,21.2c-1.3,8.1 -2.9,15.5 -3.4,16.5c-0.6,1 -2,6.7 -3.2,12.8c-1.2,6 -2.5,12 -3.1,13.4c-0.5,1.4 -2,6.8 -3.4,12.1c-1.4,5.2 -2.9,10 -3.4,10.5c-0.4,0.6 -1.4,3 -2.1,5.4c-0.7,2.4 -2.7,5.8 -4.4,7.6c-3.8,4.1 -10.3,5.2 -21.8,3.5c-5.9,-0.8 -9,-0.8 -11,-0.1c-1.6,0.6 -3.9,1.1 -5.3,1.1c-1.3,0 -2.4,0.5 -2.4,1c0,0.6 6.6,1 17.9,1c15.8,0 18.4,-0.2 22.5,-2zm-51.9,-0.6c-8.2,-1.7 -16.2,-3.7 -17,-4.4c-0.5,-0.4 -3.7,-1.7 -7,-2.9l-6,-2.2l3,2.6c4.9,4.1 8,5.4 15.2,6.4c6.9,0.9 15.5,1.2 11.8,0.5zm16,-1.3c2.8,-0.6 2.5,-0.9 -4,-2.9c-3.8,-1.2 -9.7,-2.7 -13,-3.3c-3.3,-0.5 -6.7,-1.2 -7.6,-1.5c-1.6,-0.5 -4.5,4.1 -3.1,5c0.5,0.3 3.7,0.9 7.3,1.5c12.5,2.1 15.7,2.2 20.4,1.2zm32.5,-1.6c2.9,-1.5 5.9,-6.2 7.5,-11.5c0.4,-1.4 1.3,-3.8 2.1,-5.5c1.6,-3.8 5.7,-19.2 9.4,-35.5c1.6,-6.9 2.9,-12.5 3,-12.5c0.7,0 7,-37.9 8.2,-48.5c1.2,-11.8 0.4,-24 -2,-30.4c-3.8,-9.9 -17.1,-23 -26,-25.6c-2,-0.6 -9.3,-1.7 -16,-2.6l-12.4,-1.4l-4.6,3.3c-3.6,2.5 -4.8,4 -4.9,6.3c-0.2,1.6 -0.8,6.7 -1.4,11.3c-1,7.3 -1.6,8.8 -4.5,12.1c-4,4.4 -4.2,5.8 -1,6.6c4.4,1.1 5,4.9 2.6,16.8c-1.2,5.8 -1.9,10.9 -1.6,11.4c0.2,0.4 1.6,6.1 3.1,12.7c1.5,6.6 3.3,13.1 3.9,14.5c0.7,1.4 2.1,5.4 3,9c1,3.6 2.6,8.3 3.5,10.5c1,2.2 2.6,5.9 3.6,8.3c1,2.3 2.2,4.2 2.7,4.2c0.4,0 0.8,-9.3 0.8,-20.7c0,-28.3 1.9,-48.9 5.5,-61.3c0.7,-2.5 2,-7.2 3,-10.5c2.4,-8.2 5.9,-13.5 8.9,-13.5c1.9,0 2.5,0.7 3,3.3c0.8,4.3 -0.2,7.4 -5.7,18.1c-5.9,11.2 -6.9,16.6 -6.1,33.6c0.7,13.9 -0.4,28.4 -3.2,44c-1.7,9.2 -4.3,13.5 -7.5,12.5c-1.6,-0.5 -1.8,-0.1 -1.2,4.3c0.4,3.8 0.2,5.2 -1.2,6.6c-1.6,1.6 -1.6,2.1 -0.4,5.9c0.8,2.5 1.4,8.4 1.4,14.4l0,10.2l3,0.4c8.1,1 18.7,0.6 21.5,-0.8zm-412.2,-3.7c0.1,-2.3 1.1,-5.9 2.1,-8c2.2,-4.5 -0.1,-3.2 -2.5,1.3c-1.9,3.7 -1.8,10.9 0.1,10.9c0.1,0 0.2,-1.9 0.3,-4.2zm385.3,1.5c1.7,-2 1.7,-15.2 0,-20.4c-2.5,-7.7 -9.9,-11.5 -24.6,-12.5c-10.7,-0.8 -10.7,-0.7 -7.4,5.8c2.2,4.3 2.8,12.4 1.5,18.5l-0.7,3.1l5.8,1.2c9.4,1.8 18.7,4.1 20.3,5.1c2.2,1.3 3.6,1.1 5.1,-0.8zm-36.4,-3.2c0.1,-1.3 -0.9,-2.1 -3.6,-3c-4.3,-1.3 -11.1,-1.5 -11.1,-0.3c0,0.9 9.9,5 12.5,5.1c1.3,0.1 2.1,-0.6 2.2,-1.8zm-70.1,-0.8c-0.4,-0.4 -3.3,-0.8 -6.4,-0.9c-8,-0.3 -10.3,-1.5 -15.3,-7.5c-4.9,-6 -14,-14.9 -15.1,-14.9c-2.2,0 -0.1,3.2 5.2,7.9c8.3,7.4 8,10.9 -1,11.1l-2.5,0.1l2.5,1.1c5.7,2.4 13.1,3.6 22.9,3.7c5.7,0.1 10.1,-0.2 9.7,-0.6zm-135.2,-2.2c0.3,-0.4 -1.8,-4.5 -4.7,-8.9c-2.8,-4.5 -6.7,-10.6 -8.5,-13.7c-2.7,-4.4 -3.9,-5.5 -5.5,-5.3c-3,0.4 -3.7,4.8 -0.8,4.8c2.7,0 4.9,3.5 7.7,12.2c1.3,3.9 3.4,8.2 4.6,9.5c2.1,2.3 6.2,3.1 7.2,1.4zm71.1,-0.1c0.4,-0.6 -3.5,-1 -11,-1c-7.5,0 -11.4,0.4 -11,1c0.3,0.6 5.2,1 11,1c5.8,0 10.7,-0.4 11,-1zm-81.1,-2.2c-0.5,-0.7 -2.3,-5.1 -3.9,-9.8c-3.4,-9.5 -6.1,-11.5 -5.9,-4.5c0.1,5.4 2,10.8 4.7,13.2c3.4,3.2 6.9,3.9 5.1,1.1zm150.4,-0.7c1.2,-1.1 2.2,-2.4 2.2,-2.9c0,-0.6 -4.2,-2 -9.2,-3.2c-10,-2.3 -22.4,-6.5 -24.8,-8.5c-7.7,-6.2 -3.5,0.6 7.6,12.2l4.1,4.3l8.9,0c7.2,-0.1 9.3,-0.4 11.2,-1.9zm66.2,-2.3c0.6,-2.4 1.5,-5.7 2,-7.5c1.5,-5.8 -1.3,-7.7 -15.1,-10.3c-3,-0.5 -6.3,-1.4 -7.4,-1.9c-1.1,-0.5 -6.9,-1.9 -13,-3.1c-6,-1.2 -11.4,-2.5 -12,-2.9c-0.5,-0.4 -4.5,-1.6 -8.8,-2.6c-7,-1.6 -8.2,-2.2 -13.2,-7.1c-11.7,-11.6 -23.5,-17.7 -36.5,-19c-8.7,-0.8 -9.3,0.7 -1.7,4.3c2.6,1.3 4.7,2.7 4.7,3.2c0,0.5 2.1,2.2 4.8,3.7c5.9,3.6 3.7,4.4 -5.3,1.9c-3.5,-0.9 -7.5,-1.5 -9.1,-1.3c-2.9,0.3 -2.9,0.4 -2.9,6.8c0,5.6 0.4,7.1 3,11c4.9,7.3 14.5,13 29.5,17.4c19.2,5.6 19.8,5.8 22.2,4.2c6,-4 22,-2.4 31.4,3c2.8,1.7 5.7,2.4 9.5,2.5c3,0 7.4,0.4 9.9,0.8c2.5,0.5 5,0.9 5.7,1c0.7,0 1.7,-1.8 2.3,-4.1zm3.4,2c0.3,-1.3 0.6,-3.4 0.5,-4.8c0,-2.3 -0.1,-2.2 -1.4,0.9c-0.8,1.8 -1.5,4 -1.5,4.7c0,2.2 1.7,1.6 2.4,-0.8zm-144.7,0.5l17.1,-0.6l-3.4,-2.4c-1.9,-1.2 -3.9,-2.3 -4.3,-2.3c-0.9,0 -6.8,-6.4 -11,-12c-3,-4 -11,-16 -19.5,-29.5c-2.4,-3.8 -6.2,-9.6 -8.3,-12.8c-2.1,-3.2 -5.6,-9.1 -7.8,-13l-4.1,-7.2l-11.4,-0.6c-6.3,-0.4 -17.1,-0.7 -24,-0.8l-12.6,-0.1l0.4,21.6l0.4,21.6l3.5,5.1c3.8,5.7 5.1,6.5 10.2,6.6c2,0.1 4.8,1.1 6.8,2.7c1.8,1.4 5.3,3.4 7.8,4.5c4.6,2 7.5,5.1 7.5,8c0,0.9 -1.5,3.1 -3.2,5c-7.2,7.5 -8.7,6.9 16.3,6.9c12.3,0 30.1,-0.3 39.6,-0.7zm80.3,-0.3c0,-1.3 -1.1,-1.3 -3,0c-1.2,0.8 -1.1,1 0.8,1c1.2,0 2.2,-0.4 2.2,-1zm30.5,-2.1c-10.4,-5.4 -28.5,-5.2 -28.5,0.2c0,1.9 0.2,1.8 4.3,-0.3c6,-3.2 14.5,-3 21.7,0.5c7.7,3.7 9.9,3.3 2.5,-0.4zm-299.5,-7.4c2.1,-5 4.1,-10.6 4.5,-12.5l0.7,-3.5l-2.6,2.4c-1.4,1.3 -3.3,4.5 -4.3,7c-0.9,2.5 -2.3,5.7 -3,7.1c-1.6,3.1 -1.7,9.3 -0.2,8.8c0.6,-0.2 2.8,-4.4 4.9,-9.3zm130,4.2c3.9,-4.3 4.2,-5.1 3.4,-7.5c-0.6,-1.8 -2.5,-3.4 -5.5,-4.8c-2.5,-1.2 -6.2,-3.4 -8.3,-4.8c-2.3,-1.5 -5.3,-2.6 -7.2,-2.6c-3.3,0 -4.5,1.2 -2.4,2.5c0.6,0.4 2,2.5 3.1,4.7c3.4,6.6 10.9,18 11.7,17.6c0.4,-0.2 2.8,-2.5 5.2,-5.1zm97.4,4.7c2.5,-0.4 4.6,-1.1 4.6,-1.5c0,-0.5 -2.9,-3.7 -6.5,-7.2c-6.2,-6 -7.7,-8.8 -5.5,-10.2c0.5,-0.3 2.2,0.1 3.8,0.9c2.3,1.2 1.8,0.4 -2.4,-4c-4.1,-4.1 -5.5,-6.5 -6,-9.4c-0.4,-2.2 -0.9,-4 -1.3,-4c-0.3,0 -2.1,2.1 -4,4.5c-2.3,3.1 -4.1,4.5 -5.7,4.5c-1.3,0 -2.4,-0.4 -2.4,-1c0,-0.5 -1.3,-1 -3,-1c-3.5,0 -9,-5 -10.9,-10.1c-2.6,-6.8 -4.4,-9.5 -11.3,-16.9c-3.8,-4.1 -6.4,-6.4 -5.8,-5.1c1.2,2.3 3.1,5.3 17.8,27.3c4,5.9 7.2,11 7.2,11.3c0,0.3 2.9,4.7 6.5,9.8c3.6,5.1 6.5,9.7 6.5,10.4c0,2 9.6,2.9 18.4,1.7zm-321,-8.8c3.1,-10 7,-14.9 13.1,-16.4c14.9,-3.6 15.2,-3.6 26.1,-1.8c5.7,1 11.3,1.4 12.5,1.1c1.6,-0.5 1.9,-0.4 1.4,0.5c-0.6,0.9 -2.6,1.1 -7.4,0.6c-3.6,-0.3 -10,-0.8 -14.1,-1.1c-6.8,-0.4 -6.6,-0.3 2.7,1c5.6,0.7 12.3,2.3 14.9,3.4c2.6,1.2 4.9,1.9 5.2,1.6c0.3,-0.2 0,-4.4 -0.7,-9.3c-0.9,-7.3 -0.8,-10.4 0.3,-16.5c1.6,-8.2 6,-17.4 10.8,-22.2l2.9,-3l1.9,2.2c2.5,3.1 1.1,7.5 -5,15c-8,9.9 -8.9,12.3 -8.8,24.9l0.1,11l3.6,2.6c3.8,2.6 8,4.2 14.5,5.3c3.6,0.6 4,0.4 8,-4c2.2,-2.6 6.1,-6.8 8.6,-9.5l4.5,-4.8l7.2,0.3l7.1,0.4l0.6,-3.7c0.4,-2 2,-8 3.6,-13.2c3.7,-11.9 5,-22 5,-36.8c-0.1,-11.1 -1.8,-24.3 -3.4,-26c-0.4,-0.4 -4.3,1.2 -8.6,3.6c-10,5.4 -16,5.5 -16,0.3c0,-0.9 -0.7,-2.9 -1.6,-4.6c-2,-3.9 -5.4,-23.2 -5.4,-31.2c0,-3.5 -0.3,-6.3 -0.7,-6.3c-0.3,0 -2,1 -3.7,2.3c-1.7,1.3 -7.8,4.7 -13.6,7.6c-11.9,6 -14.3,7.6 -22,14.5c-8.3,7.6 -12.6,13.5 -16,22.2c-3.3,8.6 -4.9,17.9 -5,29.2c0,10.5 -2.8,15.8 -15,28.6c-5.4,5.6 -10,11.1 -10.3,12.2c-5.8,19.2 -6.2,28.4 -1.1,28.4c0.6,0 2.3,-3.8 3.8,-8.4zm134.3,6.2c1.8,-0.5 5.2,-0.6 7.7,-0.3c2.4,0.4 6.3,0.4 8.5,0c3.7,-0.6 4.1,-0.9 4.1,-3.7c0,-1.6 -1.5,-6.6 -3.4,-11.1c-1.9,-4.5 -3.7,-9 -4,-10c-0.5,-1.5 -1.3,-1.6 -6.2,-1.1c-5.4,0.7 -5.7,0.6 -5,-1.2c1.8,-4.4 1.8,-5.4 0,-5.4c-0.9,0 -2.5,0.7 -3.5,1.6c-1.4,1.3 -1.5,2 -0.7,3.4c1.8,2.9 0.3,5 -3.7,5c-3.9,0 -4.4,-1.3 -1.8,-4.2c1.5,-1.7 1.5,-2 0.1,-3.4c-1.3,-1.4 -1.8,-1.3 -4.9,0.4c-1.9,1.1 -5.1,2.3 -7.1,2.6c-2.1,0.4 -3.8,1 -3.8,1.4c0,1.4 2.4,3.2 4.2,3.2c1,0 3.2,1.3 5,2.9l3.2,2.8l-1.1,6.4c-0.6,3.5 -1.4,7.4 -1.8,8.6c-1.3,4 5,5 14.2,2.1zm152.8,-20.9c-7.4,-11.2 -14.3,-21.5 -15.2,-22.9c-6,-8.5 -8.3,-12 -8.3,-12.6c0,-1.1 -8.3,-12.5 -11.6,-16.1c-3.5,-3.6 -7.4,-4.4 -7.4,-1.5c0,1 1.4,4.1 3.2,6.8c1.7,2.7 4.6,7.4 6.5,10.4c17,27.1 27.8,43.2 32.9,48.7c4.3,4.8 11.4,9.4 12.7,8.3c0.4,-0.3 -5.4,-9.8 -12.8,-21.1zm-166.6,9.6c1.2,-4.9 1.2,-5 -1.9,-7.7c-4.9,-4.5 -6.4,-3.8 -5.6,2.6c0.3,3 1.6,7.6 2.7,10.3c2.4,5.4 2.2,5.5 4.8,-5.2zm-104.9,5.8c1.4,-0.9 4.4,-3.3 6.6,-5.4c5,-4.5 9.5,-5.9 18.9,-5.9l7,-0.1l-3,-1.7c-2.2,-1.2 -6.2,-1.7 -14.6,-2l-11.5,-0.4l-4.8,3.2c-6.1,4.2 -10.4,10.3 -8.6,12.5c1.7,2 7,1.9 10,-0.2zm165.2,-3.8c11.9,-3.7 12.6,-4.2 13,-8.4c0.2,-2.6 0.9,-3.9 2.6,-4.6c2.8,-1.2 2.8,-1.6 -0.2,-5.9l-2.4,-3.5l-0.7,5.5c-0.6,4.7 -1.3,6.2 -4.6,9.5c-2.1,2.1 -4.8,3.9 -5.8,3.9c-1.1,0 -2.1,0.4 -2.3,0.9c-0.1,0.4 -2.8,1.7 -5.8,2.8c-3,1.1 -5.6,2.6 -5.8,3.3c-0.3,0.9 0.1,0.9 1.6,0.1c1.1,-0.6 5.8,-2.2 10.4,-3.6zm-18.6,1.3c-0.3,-1.3 -0.7,-4.3 -1.1,-6.8c-0.3,-2.5 -1.3,-6.6 -2.2,-9.2c-1.5,-4.2 -2.1,-4.8 -4.5,-4.8l-2.9,0l2.3,3c1.7,2.4 2.3,4.8 2.6,10.3c0.4,9.2 0.6,9.7 3.7,9.7c2.1,0 2.5,-0.4 2.1,-2.2zm16.9,-4.7c10.1,-4.8 12.2,-7.4 12.6,-15.6l0.4,-6l-11.3,-16.9c-6.2,-9.3 -11,-17.1 -10.6,-17.5c0.3,-0.3 1.1,0.2 1.8,1.3c0.6,1 3.5,5.3 6.3,9.5c2.9,4.2 6.7,10 8.4,12.9c1.7,2.8 3.8,5.2 4.7,5.2c1.3,0 1.4,-2 0.8,-17c-0.3,-9.3 -1.1,-18.1 -1.6,-19.5c-0.9,-2.5 -1.1,-2.5 -12.5,-2.5c-12.6,0 -13.3,0.4 -9.9,5.6c0.9,1.3 1.4,2.7 1.1,3c-0.9,0.9 -4.8,-5.8 -4.4,-7.6c0.2,-1.2 2.5,-1.6 12,-1.8l11.8,-0.3l-3.4,-6.3c-1.9,-3.5 -4.3,-9.6 -5.2,-13.7c-0.9,-4.1 -2.1,-8.3 -2.5,-9.4c-0.5,-1.1 -1.6,-5.6 -2.5,-10c-2.6,-12.3 -5.8,-16.3 -14.5,-17.8c-4.7,-0.9 -5.6,-0.1 -6.4,5.4c-1.7,11.7 -9,22.9 -14.8,22.9c-3.7,0 -7.2,8.4 -7,16.6c0.1,3.5 0.6,7.2 1.1,8.2c0.6,0.9 1.9,8.4 3.1,16.6c1.2,8.3 2.8,17.5 3.6,20.5c1.8,7 1.8,12 0,14c-0.7,0.9 -1.7,2.7 -2.1,4c-0.7,2.2 -0.5,2.3 2.1,1.7c1.6,-0.4 6,-1.4 9.7,-2.1c4.8,-1.1 7.9,-2.4 10.7,-4.7c2.2,-1.8 4,-3.6 4,-3.9c0,-0.3 -1.1,-1.6 -2.5,-2.9c-1.9,-1.8 -2.5,-3.4 -2.5,-6.6c0,-7.8 5,-20.4 8.2,-20.4c1.5,0 0.8,6.9 -1.2,12.2l-2,5.3l4,3.5c2.2,1.9 4,4.3 4,5.3c0,3.5 -3.5,7.7 -8,9.9c-2.5,1.2 -4.7,2.2 -4.8,2.4c-0.2,0.1 0.3,3.3 1.2,7.1c0.8,3.7 1.8,8.5 2.1,10.7c0.6,3.8 0.7,3.8 4.2,3.3c2,-0.4 7.3,-2.4 11.8,-4.6zm-24.1,-4.5c-0.7,-4.6 -3.5,-9.6 -5.6,-9.6c-1.1,0 -0.9,1.1 1.4,7c1.8,4.6 3.9,8.3 4.4,7.7c0.2,-0.2 0.1,-2.5 -0.2,-5.1zm268,-1.2l-0.7,-3.7l12.2,0.5l12.3,0.5l-4.9,-5.1c-11.1,-11.5 -17.7,-22 -20.2,-32.1c-0.7,-2.7 -1.7,-6 -2.3,-7.2c-0.6,-1.1 -1.6,-4.7 -2.4,-8c-1.3,-5.7 -1.3,-5.7 -0.8,5.7c0.5,12.9 2.2,26 3.4,27.5c0.5,0.6 1.1,2.8 1.5,4.9c0.7,3.7 0.7,3.9 -1.6,3.3c-1.3,-0.3 -4.9,-1.4 -7.9,-2.6c-4.9,-1.9 -11,-2.8 -11,-1.7c0,0.3 0.4,1.6 0.9,2.9c0.8,2.1 1.8,2.5 7.5,3.2c6.9,0.7 9.6,2.6 9.6,6.7c0,1.6 -1,1.8 -6.9,1.8c-10.8,0 -15.1,-2.3 -15.1,-8c0,-2.1 -0.1,-2.1 -3.2,0.5c-2.9,2.4 -3.8,2.7 -8.5,2.2c-4.1,-0.4 -7,-1.6 -12.3,-5.1c-3.8,-2.5 -7.7,-5.9 -8.6,-7.6c-1,-1.6 -2.6,-3 -3.6,-3c-1,0 -2.6,-0.4 -3.6,-0.9c-13.1,-6.9 -31.7,-15.1 -35.3,-15.6c-3.6,-0.5 -5.7,-0.2 -9.7,1.5c-10.3,4.4 -11.5,0.9 -11.6,-33.5c-0.1,-22.5 -0.3,-25.4 -1.9,-27.9c-1.7,-2.6 -2,-2.7 -4,-1.2c-6.1,4.4 -10.9,6.7 -18.2,8.6c-4.7,1.2 -8.7,2.9 -9.7,4.1c-3.8,4.5 -3.7,24 0.1,30.5c2.8,4.8 11.1,25.1 11.1,27.3c0,2.2 1.6,4.7 8.7,13.9c6.5,8.3 8.7,9.8 12.8,8.8c2.4,-0.6 2.4,-0.8 1.8,-9.2c-0.6,-7.9 -0.5,-8.6 1.2,-8.3c1,0.2 2.5,1.8 3.5,3.6l1.7,3.2l1.2,-2.7c1.1,-2.4 1,-2.8 -0.9,-4.2c-5.3,-3.7 -17.3,-14.2 -26.2,-23c-9.3,-9.2 -12.1,-13.1 -11.1,-15.7c1.3,-3.4 5.3,-0.5 22.2,16.5c16.8,16.8 22.4,21.2 26.8,21.2c1,0 -0.7,-1.3 -3.7,-2.8c-6.9,-3.4 -7.2,-5.6 -1,-6c13.9,-1.1 28.9,5.7 42.6,19.1c4.8,4.8 5.8,5.3 16,7.9c6,1.6 15.9,4 21.9,5.4c8.6,1.9 26.5,6.5 28.3,7.3c0.2,0 0,-1.5 -0.4,-3.5zm37.1,0.7c1.4,-4.4 -1.8,-11.4 -8.4,-18.5c-8.7,-9.4 -14.3,-19.7 -17.6,-32.1c-1,-3.8 -2.2,-7.4 -2.5,-8c-0.4,-0.5 -1.5,-5.3 -2.5,-10.5c-0.9,-5.2 -2.5,-12.4 -3.6,-15.9c-1,-3.5 -1.9,-7.3 -1.9,-8.3c0,-2.7 -2.8,-1.9 -5.4,1.5c-1.9,2.6 -2.1,4 -1.9,14.6c0.2,11.8 1,15.8 5.7,32.6c4.4,15.6 11.4,26.5 25.6,39.8c7.4,7 11.3,8.5 12.5,4.8zm-43.5,-7.1c0,-2.6 -2.9,-4 -8.5,-4c-3.7,0 -5.1,-0.5 -7,-2.6l-2.5,-2.7l0,4.1c0,2.2 0.6,4.4 1.3,4.9c0.6,0.4 4.4,1.1 8.2,1.4c3.9,0.3 7.3,0.6 7.8,0.7c0.4,0.1 0.7,-0.7 0.7,-1.8zm-285.4,-0.1c0.3,-0.6 0.1,-1.6 -0.4,-2.1c-1.3,-1.3 -4.5,0.8 -3.6,2.3c0.7,1.2 3.1,1.1 4,-0.2zm260.6,-4.9c5.1,-4 6.1,-8.1 5.4,-21.8c-0.4,-6.8 -1.2,-14.9 -1.7,-17.9c-1.3,-6.9 -6.8,-23.9 -10.3,-31.7c-1.4,-3.2 -2.6,-6.5 -2.6,-7.2c0,-0.8 -0.3,-1.4 -0.7,-1.4c-0.5,0 -1.6,-1.4 -2.5,-3c-1.8,-3.2 -8.5,-6.6 -18.4,-9.5c-3.3,-0.9 -8.7,-3 -12.1,-4.7c-3.4,-1.8 -6.5,-2.9 -6.9,-2.5c-0.4,0.3 0.2,2.8 1.3,5.4c2.7,6.3 3.5,11.5 2.7,15.9c-0.6,3.1 -1.3,3.9 -5,5.5c-5.3,2.4 -6.1,3.5 -3.1,4.3c3.4,0.8 7.7,4.5 7.7,6.4c0,0.9 -0.7,3.1 -1.6,4.7c-0.9,1.7 -2.7,6.8 -4.1,11.3c-1.3,4.6 -2.8,9.1 -3.2,10c-0.5,1 -1.5,3.1 -2.2,4.7c-0.7,1.7 -1.5,3.3 -1.7,3.6c-0.4,0.8 21.3,11.5 25.3,12.5c2.8,0.7 2.8,0.7 2.2,-3.2c-0.4,-2.1 -1.2,-9.7 -1.8,-16.7c-1.1,-12.3 -1,-13 0.8,-15.5c2.5,-3.4 4.9,-3.9 7.4,-1.6c2.4,2.2 2.4,4.2 0,12.9c-2.3,8.2 -3.1,25.9 -1.3,29.1c1.4,2.6 11.2,9.3 16.2,11c5,1.8 7.4,1.7 10.2,-0.6zm-272.7,-0.6c2.7,-1.1 3.5,-1.8 2.7,-2.6c-1.3,-1.3 -8.3,1 -9,3c-0.5,1.6 1.8,1.5 6.3,-0.4zm169.6,-0.2c-1.1,-2.1 -5.1,-5.8 -5.1,-4.8c0,0.5 0.9,2.1 2.1,3.7c2.2,3.2 4.6,4.1 3,1.1zm173.9,1.2c0,-0.3 -0.9,-2.2 -1.9,-4.2c-3.1,-5.9 -5.6,-12.2 -7.5,-19.2c-1,-3.6 -2.4,-7.8 -3.2,-9.5c-0.7,-1.6 -2,-6.1 -2.9,-10c-0.9,-3.8 -2.1,-7.8 -2.6,-8.8c-1.6,-3 -2.2,-15.9 -0.9,-20.7c0.7,-2.5 1.5,-6.8 1.7,-9.5c0.5,-5 0.4,-5.1 -3.1,-6.8c-2,-0.9 -3.6,-2.3 -3.6,-3c0,-0.7 1.6,-2.8 3.5,-4.7c3.5,-3.4 4.4,-6.2 6,-18.2c1.1,-8.4 -1.1,-6.2 -12,12.1c-5.4,9 -6.4,19.5 -3.5,36.6c3.5,20.6 6.2,28 21,56.5c2.5,5 6.7,10 8.2,10c0.4,0 0.8,-0.2 0.8,-0.6zm-157,-5.9c0,-1.8 -0.9,-4.3 -2,-5.6c-1.9,-2.3 -1.9,-2.4 -2,-0.3c0,1.2 0.3,4.2 0.6,6.8c0.6,3.7 0.9,4.4 2,3.5c0.8,-0.6 1.4,-2.6 1.4,-4.4zm163,-5c0.6,-4.4 1.6,-10.7 2.2,-14c0.5,-3.3 1.1,-16.1 1.1,-28.5l0.2,-22.5l5.8,-11.6c4.2,-8.5 5.7,-12.7 5.7,-15.8c0,-9.7 -6.4,-1.8 -9.9,12.4c-1.3,5 -2.7,9.9 -3.2,11c-2.5,6 -5.2,40.9 -4.7,63c0.2,8.4 0.6,15.1 0.9,14.7c0.4,-0.4 1.2,-4.3 1.9,-8.7zm-343,6c5.2,-0.1 10.8,-0.7 12.4,-1.3c2.4,-1.1 2.7,-1.6 2.2,-4c-2,-8.4 -2.9,-12.8 -4.7,-23.7c-1,-6.6 -2.6,-15.6 -3.4,-20c-1.9,-11 -1.8,-14.9 0.5,-19.7c1.3,-2.7 1.7,-4.5 1.1,-5.1c-1.2,-1.2 -7,-4.7 -13.5,-8.2c-6.6,-3.5 -20,-14.9 -25.6,-21.8c-2.5,-3.1 -4.8,-5.6 -5.3,-5.7c-1.6,-0.1 4.3,11 8.5,16c0.7,0.8 4.5,3.9 8.3,6.7c3.9,2.8 7.9,6.1 8.9,7.2c1.3,1.5 2.6,1.9 4.3,1.5c1.9,-0.5 3.2,0.1 5.9,2.7c5.9,5.7 4.3,6.9 -5.7,4.4l-2.7,-0.7l1.5,6.9c3.4,14.9 1.4,46.4 -3.7,59.4c-2.5,6.2 -2.5,7.3 -0.2,6.3c0.9,-0.4 6,-0.8 11.2,-0.9zm40.3,0.4c2.6,-1.2 4.7,-4.7 4.7,-7.8c0,-1 -1.6,-3.1 -3.5,-4.5c-4.1,-3.1 -4.4,-5.4 -1.5,-11.7c1.1,-2.4 2,-5.3 2,-6.4c0,-4 -3.1,1.1 -5.1,8.1c-2.7,9.9 -2.5,11.7 1.7,15.2l3.5,2.9l-3.3,2.7c-3.4,2.7 -2.7,3.4 1.5,1.5zm253.2,-2.1c-2,-6.7 -3.5,-17.3 -4.5,-32.9c-0.9,-13.9 -1.5,-17.9 -2.9,-19.9c-1,-1.4 -2.8,-5.6 -4,-9.3c-2.3,-6.7 -2.3,-7 -0.6,-12.2c1.7,-5.6 1.4,-7.5 -1.1,-7.5c-0.8,0 -2.3,-0.9 -3.4,-2c-1.1,-1.1 -3.4,-2.3 -5,-2.7c-4.2,-0.8 -5.5,2.8 -4,11.7c1.5,9.1 3.7,32.1 5.1,53.8l1.3,18.2l3.6,0c2,0 4,0.3 4.4,0.7c0.9,1 8.7,4.1 10.5,4.2c0.9,0.1 1.1,-0.6 0.6,-2.1zm32.5,-4.7c0,-0.5 -0.6,-1.3 -1.3,-1.9c-1.3,-1.1 -7.6,-14.2 -12,-24.7c-1.4,-3.3 -3.3,-9.4 -4.2,-13.5c-0.9,-4.1 -2.1,-8.4 -2.7,-9.4c-0.6,-1.1 -1.3,-8.6 -1.6,-16.6l-0.5,-14.7l-2.7,3c-2.3,2.6 -2.6,3.5 -1.9,6.1c1.9,7 3.9,15.5 5.4,22.6c2.2,10.9 7.1,28.8 8.3,30.3c0.6,0.6 1.8,3.2 2.8,5.7c3,7.4 10.4,16.8 10.4,13.1zm-390.8,-7.8c7,-8.8 7.7,-10.2 7.8,-14c0,-3.9 -0.9,-4.1 -3.7,-1c-3.1,3.3 -11.4,21.7 -9.8,21.7c0.2,0 2.7,-3 5.7,-6.7zm249.3,0.8c-2.7,-1.6 -17.1,-16.1 -25,-25.2c-3.7,-4.1 -10.9,-9.9 -12.4,-9.9c-4.1,0 4.8,10.4 20.9,24.6c11.8,10.3 14.7,12.4 17.5,12.4c1.6,0 1.5,-0.3 -1,-1.9zm53.3,-7.3c0,-4.9 0.6,-10.5 1.6,-13.7c3,-10 1.6,-14.7 -3.6,-12c-2,1.1 -2.1,1.7 -1.5,13.3c0.8,14.1 1.6,20.6 2.8,20.6c0.4,0 0.7,-3.7 0.7,-8.2zm-88.3,2.5c-1.1,-4.6 -7.3,-19.7 -10.2,-24.8c-2.2,-4 -2.7,-6.1 -2.7,-12.4c-0.1,-4.2 0.2,-9.5 0.7,-11.9c0.5,-2.9 0.4,-4.1 -0.3,-3.7c-2.3,1.4 -5.2,9.1 -6.2,16.9c-1,7.1 -0.9,9 0.7,13.8c0.9,3.1 2.7,6.9 3.9,8.4c3.4,4.3 14,16.4 14.4,16.4c0.2,0 0.1,-1.2 -0.3,-2.7zm36.7,-6.9c4.6,-1.5 4.6,-1.5 4.1,-5.5c-0.4,-2.4 0.1,-5.6 1,-8.2c0.9,-2.3 2.7,-8.9 4.1,-14.7c4.6,-19.4 7.4,-29.8 9.1,-33.5c1,-1.9 1.5,-3.8 1.3,-4.1c-0.3,-0.3 -2.1,0.4 -3.9,1.4c-6.9,4 -19.7,5.2 -26.3,2.6c-1.6,-0.6 -1.8,-0.4 -1.1,1.2c0.5,1 1.2,14.7 1.5,30.4c0.4,15.7 0.8,28.6 0.9,28.7c1,1.3 3.4,3.3 4,3.3c0.4,0 2.8,-0.7 5.3,-1.6zm21.6,-3.1c0.6,-1.6 2.2,-5.7 3.5,-9.3c1.4,-3.6 2.9,-7.8 3.3,-9.5c0.4,-1.6 1.5,-4.7 2.6,-6.8c2.3,-4.6 1.5,-6 -5,-8.8c-3.9,-1.7 -4.3,-2.1 -3.1,-3.5c0.8,-0.9 3.3,-2.5 5.6,-3.5l4.3,-1.8l0,-5.7c0,-3.8 -0.9,-7.9 -2.5,-12.1c-1.4,-3.5 -2.3,-6.8 -2,-7.3c0.7,-1.1 5.2,0.2 10.2,2.8c3.8,2 12.8,5.2 14.7,5.2c0.5,0 -0.2,-1.2 -1.6,-2.7c-1.4,-1.6 -3.5,-4.7 -4.6,-6.9c-3.2,-6.4 -7.4,-9.4 -13,-9.4l-4.7,0l-4.2,8.8c-2.4,4.8 -4.3,9.1 -4.3,9.6c0,0.4 -0.7,2.2 -1.5,3.9c-1.3,2.9 -2.5,7.3 -8.5,31.2c-1.1,4.4 -2.9,11.5 -4.1,15.8c-2.1,7.4 -2.1,7.8 -0.4,9.7c1.7,1.9 4.2,2.6 10.6,2.9c3.1,0.1 3.8,-0.3 4.7,-2.6zm-78.4,-13.5c-1,-4.3 -0.7,-10.9 0.7,-17.8c1.3,-6.5 3.1,-10.3 7,-14.8c1.6,-1.8 2.9,-4.1 2.9,-5c0,-1 0.4,-2.2 0.8,-2.8c0.5,-0.5 1.9,-5.4 3.1,-10.9c1.3,-5.5 2.9,-12.3 3.7,-15.1c0.7,-2.8 2.5,-12 4,-20.5c5.9,-34.7 5.9,-44.5 0,-51.4c-4,-4.7 -5.9,-3 -11.1,10.3c-2.5,6.5 -5.7,13.1 -7,14.7c-2.3,2.8 -2.6,2.9 -3.9,1.2c-2,-2.5 -0.4,-9.2 4.3,-19.1c4.6,-9.4 5.9,-14.9 4.1,-17.1c-1.9,-2.3 -4,-1.8 -4,0.9c0,1.4 -0.5,3.7 -1,5.1l-1,2.7l-4.6,-4.1c-2.6,-2.2 -5,-3.9 -5.4,-3.6c-0.4,0.2 -1,2.6 -1.3,5.2c-0.3,2.6 -1.4,6.8 -2.5,9.3c-4,9.4 -20.4,26.9 -25.2,27c-4.2,0 -12.8,-7.9 -20.1,-18.5l-3.4,-5l-0.6,5.3c-0.6,4.9 -1.3,5.8 -9.2,14.2c-7.7,8.1 -8.6,9.4 -9.2,13.7c-0.3,2.7 -1.5,8.3 -2.6,12.5c-2.8,10.9 -1.2,25.1 3.3,28.5c2,1.5 11.8,5.3 13.8,5.3c0.9,0 6.1,-1.8 11.6,-4.1c15.7,-6.4 28.6,-10.9 32,-10.9c1.8,0 3.8,0.8 4.9,2c1.6,1.8 1.7,2.3 0.4,4.7c-2.4,4.6 -12.4,8.3 -27.5,10.3c-14.2,1.9 -21.2,4.4 -23.5,8.6c-2.9,5.5 -0.3,25.5 3.9,30.6l2.5,2.9l10.1,-0.4c12.6,-0.6 25,-2.2 28.6,-3.7c2.9,-1.2 3.4,-2.9 6,-17.7c0.6,-3.5 1.7,-8 2.4,-10c0.7,-2.1 1.9,-7.2 2.6,-11.3c0.7,-4.1 2.2,-9.7 3.3,-12.5c2.5,-6.3 5.7,-20.3 6.3,-27.5c1.1,-13.8 1.5,-16 3.1,-16c2.3,0 4.2,3 4.3,6.6c0,3.7 -4.3,18.5 -6.9,23.4c-1,1.9 -2.5,6.4 -3.4,10c-0.9,3.6 -2.6,9.1 -3.7,12.2c-1.4,4 -2,8.4 -2.1,14.5c0,4.9 -0.6,14.2 -1.2,20.8c-0.7,6.6 -1.1,12.8 -0.9,13.7c0.2,0.9 1.7,1.8 4,2.2c2.2,0.3 4.2,1.4 5,2.6c2,3.2 3.5,2.5 2.6,-1.2zm-13.5,-4.5c0,-1.6 0.4,-6.4 1,-10.8c0.5,-4.4 1,-10.5 1,-13.5c0,-5.4 0,-5.4 -1.3,-2.5c-0.7,1.7 -1.8,6.2 -2.4,10.2c-1.4,8.3 -2.8,11.9 -5.1,12.8c-0.9,0.4 -4.7,1.1 -8.6,1.6c-23.5,3.1 -24,3.4 -8,3.9c8.3,0.3 16.9,0.7 19.2,0.8c4,0.2 4.2,0.1 4.2,-2.5zm-46.8,-0.2c-4,-1.1 -5.9,-5 -7.7,-15.7c-3.5,-21.2 0.3,-25.8 23.6,-28.8c13.3,-1.8 20.2,-3.7 24.6,-7.1c3.5,-2.7 4.3,-4.8 2.2,-6.1c-1.4,-0.9 -6,-1 -7.4,-0.2c-0.5,0.3 -2.5,0.9 -4.4,1.3c-3.3,0.7 -17.6,6.4 -26.6,10.6c-5.7,2.6 -11.8,2.3 -18.4,-0.9c-6.8,-3.4 -9.4,-7.8 -10.4,-17.8c-0.6,-5.9 -0.3,-8 1.3,-12.3c1.2,-2.8 2.4,-7.7 2.7,-10.7c0.7,-5.5 0.7,-5.6 -1.4,-4.3c-3,1.9 -3.6,0.6 -1.6,-3.2c2.9,-5.7 3.1,-15.8 0.4,-23.1c-2.9,-7.8 -4.5,-9.8 -3.6,-4.3c2.8,16.4 1.8,22.6 -4.4,27.8c-2.5,2.2 -3.5,2.5 -5.5,1.7l-2.5,-1l0,12.8c0,7 -0.3,15.1 -0.6,18l-0.7,5.2l3.6,0c9.1,0 15.5,5.4 17.6,15c0.7,3 1.9,7.8 2.7,10.5c0.7,2.8 2.3,8.7 3.4,13.2c1.1,4.5 3.6,10.9 5.5,14.2c3.3,5.5 3.9,6.1 6.8,6c2.9,-0.1 3,-0.2 0.8,-0.8zm199.9,-7.7c-2.2,-16.9 -3.3,-30.1 -2.7,-32.6c1,-3.9 4,-4.4 9.4,-1.4c2.5,1.5 4.8,2.5 5,2.3c0.6,-0.7 -12.2,-9.7 -13.8,-9.7c-0.8,0 -2.8,1.3 -4.4,3c-2.5,2.6 -8.5,6.3 -11,6.6c-0.5,0.1 -1.3,0.2 -1.7,0.3c-0.4,0 1.2,2.1 3.5,4.5c4,4.2 7.6,11.9 14.2,30.9c1,2.7 1.9,4.6 2.1,4.4c0.2,-0.2 0,-3.9 -0.6,-8.3zm16.6,-11.1l-0.6,-6.8l1.6,3.5c1.8,3.7 1.9,3.6 2.9,-2.3c0.4,-2.3 2,-5.3 4.1,-7.7c2,-2.2 3.3,-4.4 2.9,-5.1c-0.4,-0.6 -0.8,-10.9 -0.9,-22.8l-0.2,-21.6l-3.4,-8.5c-5.5,-14.2 -15.1,-24.4 -29.3,-31.5c-22.2,-10.9 -47.5,-8.5 -53.3,5.2c-0.8,1.8 -1.4,3.4 -1.4,3.6c0,0.3 4.2,0.7 9.3,0.9c5.6,0.3 10.4,1.1 12.2,2.1c1.7,0.9 5,2.5 7.5,3.5c2.5,1.1 6.9,4.1 9.9,6.6c7.2,6.2 8.4,5.9 9.2,-2.6c0.6,-7.8 2,-9.8 6.3,-9.8c4.7,0 7.5,3.5 9.2,11.4c1.1,5.3 2.4,7.9 6.3,12.9c5.8,7.3 10.5,16.7 12.2,24.1c1.8,8 0.8,15 -3.5,24.4c-2.7,6 -3.8,9.7 -3.8,13.5c-0.1,5 1.7,13.7 2.8,13.7c0.3,0 0.3,-3 0,-6.7zm-287.9,-10.1c-2.2,-2.1 -2.8,-2.3 -4.1,-1.3c-2,1.7 -1.2,2.9 2.8,4.6c4,1.7 4.7,0.1 1.3,-3.3zm-7.9,-1.4c-0.3,-0.7 -3.6,-3.7 -7.4,-6.6c-3.8,-2.8 -8,-6.5 -9.4,-8c-1.4,-1.5 -3.4,-3.4 -4.4,-4.2c-2,-1.5 -2,-1.5 0,1.9c1,1.8 4.6,5.7 7.9,8.5c9.9,8.6 14.2,11.3 13.3,8.4zm21.8,-3.6c2.4,-8.2 7.4,-17 11.8,-20.9l4.4,-3.9l0.4,-19.7c0.4,-24.6 0.4,-24.5 -9.9,-19.1c-8.6,4.4 -10.5,4.2 -20.1,-2.3c-3.9,-2.6 -8,-4.6 -9.7,-4.7l-3,-0.1l0.1,7c0.1,5.2 0.9,8.7 2.9,13.5l2.7,6.4l-3.6,2.9l-3.7,2.9l0.7,7.4l0.7,7.3l-2.7,0.7c-1.5,0.3 -2.9,0.4 -3.2,0.2c-0.2,-0.3 -0.9,-3.4 -1.5,-6.9c-1.1,-6.7 -3.4,-10.3 -7.6,-12c-3,-1.1 -4.8,-0.3 -6.2,2.7c-1.8,4.1 -1.4,5.3 5.5,13.5c7.4,8.7 18.6,18.5 25.1,21.8c2.4,1.2 6.4,3.5 9,5.1c2.6,1.7 5.2,2.9 5.7,2.7c0.6,-0.2 1.6,-2.2 2.2,-4.5zm7.4,1.2c2.7,-2.5 4.4,-5.2 5.4,-8.5c2.1,-7 3,-13.9 1.8,-13.9c-1.8,0 -8,7.7 -9.2,11.6c-0.7,2.2 -1.8,4.8 -2.5,5.9c-0.7,1.1 -1.6,3.5 -1.9,5.3c-1,4.4 1.2,4.3 6.4,-0.4zm282,-6.7c0,-0.6 0.8,-2 1.8,-3.1c1.1,-1.2 2.7,-5.7 3.6,-10.1c3.9,-18.1 4.9,-21.8 6.8,-25.1c1.9,-3.3 4.5,-5.4 6.7,-5.4c1.8,0 4.1,3.1 4.1,5.6c0,2.9 2.4,3.2 5.2,0.7c2.2,-2 2.3,-3.3 0.2,-3.3c-2.2,0 -14.7,-12.8 -20.7,-21.2c-2.6,-3.7 -4.7,-6.9 -4.7,-7.2c0,-0.3 -1.3,-2.7 -2.9,-5.4c-1.6,-2.7 -3.2,-6 -3.6,-7.3c-2.3,-7.4 -9.3,-21.9 -11.9,-24.7c-7.3,-8 -25.5,-13.2 -41.5,-11.8c-6.3,0.5 -7.9,1 -9.6,2.9c-1.1,1.3 -6,4.6 -11,7.2c-4.9,2.7 -11.2,7 -14,9.5c-2.7,2.6 -6.5,5.7 -8.2,6.9c-3.9,2.7 -4.2,5.1 -0.9,8.6c1.3,1.4 2.8,4.2 3.3,6.2c1.1,4.8 3,5.3 3.8,1c1.6,-8.1 14,-14.7 27.9,-14.7c4.2,0 8.4,0.4 9.4,0.9c0.9,0.5 4.2,1.4 7.2,2.1c6.5,1.5 18.5,7.7 24.8,12.8c3.9,3.2 13.2,14.2 13.2,15.6c0,0.3 1.1,2.9 2.5,5.8c3.8,8.3 4.4,12.9 4.5,33.5c0,10.5 0.3,19.8 0.6,20.7c0.6,1.6 3.4,1.1 3.4,-0.7zm-11.5,-12.5c0.8,-5.1 -0.8,-13.5 -4.1,-20.1c-1.3,-2.8 -2.4,-5.5 -2.4,-6c0,-0.5 -2.5,-4.1 -5.6,-8c-4.5,-5.8 -5.7,-8.3 -6.9,-13.7c-1.5,-7.2 -4.4,-11.4 -8,-11.4c-3.4,0 -4.5,2 -4.5,8.5c0,10.1 -3.6,11.2 -12.8,3.5c-7.5,-6.3 -19,-11 -28.7,-11.7c-10.2,-0.8 -10.4,-0.3 -7.5,14c2.3,10.7 4.8,16.6 8.4,19.6c1.8,1.5 2.3,9.6 0.6,10.6c-0.5,0.3 -1,1.5 -1,2.6c0,1.6 0.7,1.9 4.4,1.9c5.5,0 9.8,3.3 12.8,9.6c3,6.6 8.9,11.4 13.7,11.4c5.4,0 8,-1.1 13.5,-5.9c3.9,-3.4 5,-3.9 7,-3.1c2.6,1 14.1,9.4 15.2,11.1c0.8,1.4 5,-7.8 5.9,-12.9zm-89.9,8.2c5.6,-2.8 7.1,-5.7 9,-17.4c0.9,-5.8 2.3,-11.7 3,-13.2c0.8,-1.5 1.4,-3.4 1.4,-4.3c0,-6 -23.3,-22.5 -31.8,-22.5c-3.2,0 -8.4,2.1 -10.8,4.4c-0.6,0.6 -2.6,2.4 -4.4,4l-3.3,2.8l0.5,12.2c0.6,13.7 1.9,19.7 5.6,27.5c4,8 6.6,9.3 17.8,8.8c6.3,-0.3 10.3,-1 13,-2.3zm121,-25.5c2.5,-2.6 3.3,-8 1.5,-10.7c-1.6,-2.6 -5.2,-0.9 -7.8,3.8c-2.3,4 -6.3,19.5 -6.3,24.4c0,1.1 2.3,-1.9 5.1,-6.5c2.7,-4.6 6.1,-9.5 7.5,-11zm-107.5,10.3c1.9,-4.3 2.7,-16.2 1.1,-16.2c-0.9,0 -3.9,11.5 -4.7,18.5c-0.7,5.7 0.3,5 3.6,-2.3zm-230.4,0.7c0.8,-0.8 1,-3.4 0.6,-7.7c-0.6,-6.4 -0.6,-6.6 2.5,-9.2l3.1,-2.6l-2.5,-7.9c-4.8,-15.1 -4.3,-20.5 2,-20.5c2.1,0 4.8,1.1 7.5,3.1c6.8,4.8 10.9,6.9 14.1,6.9c3.5,0 14,-5.6 14,-7.4c0,-3 -3.3,-10.6 -4.6,-10.6c-0.8,0 -1.4,-0.4 -1.4,-0.9c0,-0.5 -1.9,-1.7 -4.2,-2.6c-5.7,-2.4 -22.1,-2.4 -29.7,-0.2c-10.2,3.1 -18.6,9.8 -21.6,17.1c-1.9,4.6 -2.8,14.9 -2,22.3l0.7,6.6l2.4,-2.7c1.4,-1.4 3.6,-2.6 4.9,-2.6c3.7,0 9.3,5.5 10,9.8c0.3,2 0.8,5.2 1.1,7c0.5,3.4 1.3,3.9 3.1,2.1zm150.6,-33.1c0.2,-5.8 -0.5,-9 -1.7,-7.7c-0.2,0.2 -0.6,5.6 -0.9,11.9c-0.6,11.2 -0.6,11.4 0.9,7c0.8,-2.5 1.6,-7.5 1.7,-11.2zm202.3,9.6c5.7,-3.8 6.6,-9.3 5.3,-35.9c-2.3,-47.4 -8.2,-81.2 -16.8,-95.4c-6.6,-10.9 -16,-17.6 -28.8,-20.6c-3.7,-0.9 -7.1,-1.9 -7.7,-2.4c-0.6,-0.4 -3.8,-1.3 -7,-2c-14.4,-2.7 -18.8,-0.4 -13.3,7.2c4.4,6.3 3,23 -3.4,38.8c-1.6,4.2 -4.8,5.4 -9.2,3.5c-4.6,-1.9 -4.7,-1.2 -0.7,7.2c4.2,8.8 6.2,15.1 5.5,17.3c-0.5,1.5 -1.6,1.9 -5.3,1.9c-2.6,0 -6,-0.7 -7.5,-1.5c-3.5,-1.8 -7.7,-0.5 -7.7,2.5c0,1.9 0.6,2 9.8,2c10.3,0 21.4,1.9 26.3,4.5c1.6,0.8 4.1,2.2 5.7,3c1.5,0.8 4,2.7 5.5,4.3c3.1,3.2 8.9,14.8 11,22c2.2,7.4 9.3,18.9 18.8,30.7c6.7,8.2 9.3,10.8 13.4,12.9c3.6,1.9 3.1,1.9 6.1,0zm-128.5,-12.4c-0.6,-2.8 -1.1,-6.4 -1.1,-8c0,-4.4 -1.8,-7.4 -5.5,-9.4c-3.5,-1.9 -4.5,-3.9 -4.5,-9.2c0,-4 -1.4,-4.5 -8.5,-3.4c-9.4,1.5 -14.9,6.8 -20,19.1c-1.9,4.6 -3.5,9 -3.5,9.7c0,1.8 1.5,1.5 3.6,-0.9c3.1,-3.5 9,-5.9 14.1,-5.9c6,0 12.9,3.2 20.3,9.4c2.9,2.5 5.6,4.4 5.8,4.1c0.2,-0.2 -0.1,-2.7 -0.7,-5.5zm-44.6,0.3c4.4,-21.3 14.7,-32.3 30.4,-32.3c3.3,0 4.1,-0.4 4.1,-1.9c0,-1.5 -1,-1.9 -5.3,-2.4c-6.6,-0.8 -10.3,0.2 -16,4.5c-6.8,5 -11.1,12.1 -12.6,20.9c-0.7,4.1 -1.7,8.9 -2.1,10.7c-0.5,1.8 -0.5,3.2 0.1,3.2c0.5,0 1.1,-1.2 1.4,-2.7zm-123.7,-3.8c4,-4.4 4.7,-8.4 3.2,-18.1c-2,-13.6 -2.7,-15.4 -6.7,-17.1c-6.8,-2.8 -13.3,0.5 -13.3,6.7c0,1.3 1,4.8 2.1,7.6c2.1,5 2.4,5.3 8,6.9c5,1.4 5.9,1.9 5.9,3.9c0,2.7 -3.7,5.6 -7.1,5.6c-1.8,0 -2,0.4 -1.4,2.7c1.5,6.3 4.9,6.9 9.3,1.8zm-72.5,-11.5c9.1,-10.2 32.1,-15.1 47.3,-10.1c3.2,1.1 5.9,1.9 6,1.8c0.1,-0.1 -0.1,-1.7 -0.3,-3.5c-1,-6.6 -12.7,-10.7 -30.8,-10.6c-11.2,0 -14.9,1.2 -21,6.5c-5.2,4.6 -7.4,10.1 -8.1,20.1l-0.6,8.3l2.6,-5c1.5,-2.7 3.6,-6.1 4.9,-7.5zm86.7,9.1c0,-0.5 3.3,-4.1 7.3,-8l7.2,-7.1l0,-6.9l0,-6.9l-5.4,-6.3c-6.1,-7.2 -9,-9.8 -10.8,-9.9c-0.6,0 -1.9,2.6 -2.7,5.8c-0.9,3.1 -2.1,6.5 -2.6,7.4c-1.3,2.3 -1.3,7.5 0,8.3c1.4,0.9 3.8,10 4.5,17.8c0.4,3.7 1.1,6.7 1.6,6.7c0.5,0 0.9,-0.4 0.9,-0.9zm46,-6.1c1.5,-1.1 4.8,-4.4 7.5,-7.5l4.8,-5.6l-3.6,0.6c-4.8,0.9 -12.7,-1 -20.7,-5c-7.4,-3.8 -12.2,-8.3 -14.4,-13.7c-2.6,-6.2 -3.6,-5.5 -3.6,2.3c0,6.9 0.2,7.6 4.2,13.4c6.1,8.7 9.6,12.6 14.2,15.8c4.4,3.1 7,3 11.6,-0.3zm-62.9,-0.2c1.2,-1.8 0.4,-2.5 -5.5,-4.3c-4.7,-1.5 -5.7,-2.3 -7,-5.4c-1.4,-3.3 -1.5,-3.4 -1.5,-1c-0.1,1.5 0.7,3.7 1.7,5c1,1.3 2.4,3.7 3.2,5.2c1.3,2.6 1.8,2.8 4.9,2.3c1.9,-0.3 3.8,-1.1 4.2,-1.8zm166.9,-7.3c0,-2.4 -3.3,-8.6 -4.4,-8.2c-2,0.6 -1.7,4.3 0.4,7c2.4,3 4,3.5 4,1.2zm-93.5,-7.1c5.2,-1.4 11.6,-18.9 9.6,-26.2c-0.6,-1.9 -0.8,-3.9 -0.5,-4.4c0.3,-0.5 0,-2.2 -0.6,-3.9c-1.6,-3.8 -6.7,-5.3 -14,-3.9c-2.9,0.5 -8.9,1 -13.4,1c-9.1,0 -12.6,1.5 -16.9,7.2c-2.3,3 -2.5,3.8 -1.6,7.7c1.3,5.9 3.1,9 7.2,12.8c3.4,3.1 13.8,8.6 18.2,9.6c2.9,0.7 9.7,0.8 12,0.1zm-63.6,-15.8c0.5,-0.6 1.2,-3 1.6,-5.3c0.6,-3.9 0.5,-4.3 -1.4,-4.3c-3.2,0 -5.1,3.8 -5.1,10c0,7.1 2.1,9.9 3.3,4.4c0.4,-2.1 1.1,-4.2 1.6,-4.8zm23.6,-14.8c0.8,-6.1 4.8,-9.5 11.4,-9.7c2.4,0 6,-0.5 8,-1.1c6.5,-1.7 16.5,-2.3 20.6,-1.1c6.1,1.7 9.4,4.9 10.9,10.6c0.7,2.8 1.7,4.9 2.2,4.8c1.1,-0.2 7.7,-2.7 8.3,-3c0.2,-0.1 -2.1,-2.9 -5,-6.1c-3.7,-4 -5.9,-7.5 -7.2,-11.3c-0.9,-2.9 -2.9,-9.2 -4.4,-13.8c-4.5,-14.4 -11.6,-19.9 -26.7,-20.8c-6.7,-0.4 -9.1,-0.1 -13.8,1.7l-5.8,2.1l0,5.3c0,5.7 -1.7,8.3 -4.6,7.2c-1.3,-0.5 -1.5,-1.5 -1.1,-4.4c0.3,-2 0.8,-4.6 1.3,-5.6c0.6,-1.7 0.4,-1.8 -2.2,-1.2c-3.7,0.9 -7.9,5.7 -9.9,11.5c-1.3,3.8 -1.4,7.5 -0.9,21.8l0.7,17.3l3.3,2.2c1.8,1.2 5.2,4.7 7.6,7.6l4.2,5.4l1.2,-7.4c0.7,-4 1.5,-9.4 1.9,-12zm139.5,11.7c2.5,-2.3 8.4,-6.3 13.2,-8.8c13.7,-7.5 14.3,-10.3 1.1,-5c-3.8,1.5 -9,4.3 -11.7,6.2c-5,3.6 -10.6,10.3 -10.6,12.9c0,1.7 0.9,1.1 8,-5.3zm-76.4,-2c0.3,-1.9 0.4,-4.2 0,-5c-0.7,-2 -5.5,-1.9 -8.5,0.1l-2.3,1.6l2.9,1.8c1.5,0.9 3.4,2.4 4.2,3.3c2,2.5 2.9,2.1 3.7,-1.8zm-55.1,-15.5c0.8,0 1.7,-0.4 2,-1c0.3,-0.5 -0.3,-1 -1.4,-1c-2.6,0 -6.1,3.4 -6.1,5.8c0.1,1.3 0.5,1.1 2.1,-1c1.1,-1.6 2.7,-2.8 3.4,-2.8zm22.5,-3.5l5.5,-1.4l-6.4,0.2c-4.1,0.1 -6.6,0.7 -6.9,1.5c-0.5,1.5 0.9,1.5 7.8,-0.3zm158,-5.1c0,-2.8 -7.5,-21 -9.7,-23.4c-1.1,-1.2 -1.3,0.4 -1.5,9.8c-0.1,6.2 -0.2,12 -0.2,12.9c-0.1,1.9 2.9,3 8.2,3.2c2.8,0.1 3.2,-0.2 3.2,-2.5zm-14.4,-1.5c0.3,-0.6 -0.1,-1.8 -1,-2.7c-0.9,-0.9 -1.6,-1.1 -1.6,-0.5c0,0.6 -0.3,1.8 -0.6,2.7c-0.7,1.8 2.1,2.3 3.2,0.5zm2.4,-18.1l0,-15.2l-3.2,3c-1.8,1.6 -3.7,3.2 -4.2,3.6c-0.5,0.4 0.1,2.3 1.3,4.3c1.4,2.4 2.1,5.3 2.1,8.5c0,2.7 0.5,5.2 1,5.5c0.6,0.3 1,1.7 1,3.1c0,1.3 0.5,2.4 1,2.4c0.6,0 1,-5.7 1,-15.2zm-10.7,-0.4c3.6,-2.4 3.7,-2.7 2.4,-4.7c-2.3,-3.5 -4.2,-3.2 -5.6,1c-0.7,2.1 -1.5,4.4 -1.7,5.1c-0.8,1.9 0.8,1.4 4.9,-1.4zm-168.7,-5c0.4,-1.4 0.2,-3 -0.5,-3.7c-1.4,-1.4 -1.7,-1 -2.6,3.1c-0.5,2.5 -0.3,3.2 0.9,3.2c0.9,0 1.9,-1.2 2.2,-2.6zm194.6,-0.1c1.9,-2.3 2.6,-4.2 5,-13.8c3.1,-12.2 3.3,-17.2 0.9,-22.7c-2.4,-5.6 -3.7,-6.1 -4.4,-1.5c-1.1,7.5 -3.6,13.7 -8,19.9c-2.6,3.6 -5.4,7.1 -6.2,7.8c-2.5,2.1 -1.7,4.6 2.5,8.4c4.4,3.9 7.9,4.6 10.2,1.9zm-6.4,-20.7c3,-4.1 5.1,-10.5 6.7,-19.8c1.1,-6.7 -1,-4 -2.8,3.5c-0.9,3.9 -3.1,10 -4.7,13.4c-4.3,8.9 -4.1,9.7 0.8,2.9zm-49.1,-10.2c0.4,-1 -0.6,-2.7 -2.7,-4.7c-3.1,-3.1 -3.2,-3.1 -2.5,-0.7c2.1,7.1 3.8,8.9 5.2,5.4zm-12.2,-15.9c1.7,-2.2 3.2,-2.7 11.2,-3.6c9.9,-1.1 11.1,-1.5 18.8,-6.9c4,-2.8 6,-3.5 9.6,-3.5c4.2,0 5.2,0.5 9.8,4.8c4,3.7 5.8,4.8 7.9,4.5c2.6,-0.3 2.7,-0.4 2.5,-6.3c-0.3,-7 1.2,-12.5 3.4,-12.5c1.3,0 1.4,-0.8 0.8,-4.7c-1.6,-11.6 -9.8,-21.1 -22.7,-26.5c-6.4,-2.7 -7.9,-3 -16.2,-2.6c-7.5,0.2 -10.1,0.8 -15.1,3.2c-6.9,3.3 -12.6,9.6 -15.1,16.6c-0.9,2.5 -2.1,5.5 -2.7,6.8c-1.5,3.1 -1.5,20.4 0,23.3c0.7,1.3 1.9,4.1 2.7,6.2c1.8,4.4 2.4,4.5 5.1,1.2z"/>
  </g>
 </g>
</svg>